%TF.GenerationSoftware,KiCad,Pcbnew,9.0.0*%
%TF.CreationDate,2025-03-26T16:24:43-04:00*%
%TF.ProjectId,spotmicro18_5mm,73706f74-6d69-4637-926f-31385f356d6d,rev?*%
%TF.SameCoordinates,Original*%
%TF.FileFunction,Legend,Top*%
%TF.FilePolarity,Positive*%
%FSLAX46Y46*%
G04 Gerber Fmt 4.6, Leading zero omitted, Abs format (unit mm)*
G04 Created by KiCad (PCBNEW 9.0.0) date 2025-03-26 16:24:43*
%MOMM*%
%LPD*%
G01*
G04 APERTURE LIST*
%ADD10C,0.100000*%
%ADD11C,0.300000*%
%ADD12C,0.200000*%
%ADD13C,0.150000*%
%ADD14C,0.120000*%
G04 APERTURE END LIST*
D10*
X89830000Y-113090000D02*
X110170000Y-120000000D01*
X100000000Y-113090000D02*
X110170000Y-116545000D01*
X89830000Y-116545000D02*
X100000000Y-120000000D01*
X89830000Y-113090000D02*
X110170000Y-113090000D01*
X110170000Y-120000000D01*
X89830000Y-120000000D01*
X89830000Y-113090000D01*
D11*
G36*
X131723482Y-76753361D02*
G01*
X131824089Y-76853968D01*
X131877268Y-76960327D01*
X131940224Y-77212148D01*
X131940224Y-77389507D01*
X131877268Y-77641328D01*
X131824089Y-77747688D01*
X131723483Y-77848294D01*
X131565881Y-77900828D01*
X131383081Y-77900828D01*
X131383081Y-76700828D01*
X131565884Y-76700828D01*
X131723482Y-76753361D01*
G37*
G36*
X133167826Y-77472257D02*
G01*
X132869767Y-77472257D01*
X133018796Y-77025169D01*
X133167826Y-77472257D01*
G37*
G36*
X133834286Y-78367495D02*
G01*
X129416415Y-78367495D01*
X129416415Y-76836542D01*
X129583082Y-76836542D01*
X129583082Y-76979400D01*
X129585964Y-77008664D01*
X129588026Y-77013642D01*
X129588408Y-77019018D01*
X129598918Y-77046482D01*
X129670346Y-77189339D01*
X129678274Y-77201934D01*
X129679790Y-77205593D01*
X129683169Y-77209710D01*
X129686011Y-77214225D01*
X129689005Y-77216821D01*
X129698445Y-77228324D01*
X129769874Y-77299752D01*
X129781374Y-77309190D01*
X129783971Y-77312184D01*
X129788483Y-77315024D01*
X129792604Y-77318406D01*
X129796263Y-77319921D01*
X129808857Y-77327849D01*
X129951713Y-77399278D01*
X129953855Y-77400097D01*
X129954725Y-77400742D01*
X129966996Y-77405126D01*
X129979177Y-77409787D01*
X129980257Y-77409863D01*
X129982416Y-77410635D01*
X130252154Y-77478069D01*
X130358513Y-77531248D01*
X130395517Y-77568253D01*
X130440225Y-77657667D01*
X130440225Y-77729703D01*
X130395517Y-77819117D01*
X130358514Y-77856121D01*
X130269101Y-77900828D01*
X129971711Y-77900828D01*
X129780516Y-77837097D01*
X129751842Y-77830577D01*
X129693462Y-77834727D01*
X129641115Y-77860901D01*
X129602767Y-77905115D01*
X129584259Y-77960640D01*
X129588409Y-78019020D01*
X129614583Y-78071367D01*
X129658797Y-78109715D01*
X129685648Y-78121703D01*
X129899934Y-78193131D01*
X129914446Y-78196430D01*
X129918104Y-78197946D01*
X129923406Y-78198468D01*
X129928608Y-78199651D01*
X129932562Y-78199369D01*
X129947368Y-78200828D01*
X130304510Y-78200828D01*
X130333774Y-78197946D01*
X130338752Y-78195883D01*
X130344128Y-78195502D01*
X130371591Y-78184992D01*
X130514450Y-78113564D01*
X130527044Y-78105635D01*
X130530704Y-78104120D01*
X130534824Y-78100738D01*
X130539335Y-78097899D01*
X130541929Y-78094907D01*
X130553435Y-78085465D01*
X130624863Y-78014036D01*
X130634301Y-78002535D01*
X130637295Y-77999939D01*
X130640135Y-77995426D01*
X130643517Y-77991306D01*
X130645032Y-77987646D01*
X130652960Y-77975053D01*
X130724389Y-77832197D01*
X130734898Y-77804733D01*
X130735279Y-77799358D01*
X130737343Y-77794378D01*
X130740225Y-77765114D01*
X130740225Y-77622257D01*
X130737343Y-77592993D01*
X130735279Y-77588012D01*
X130734898Y-77582638D01*
X130724389Y-77555174D01*
X130652960Y-77412318D01*
X130645032Y-77399724D01*
X130643517Y-77396065D01*
X130640135Y-77391944D01*
X130637295Y-77387432D01*
X130634301Y-77384835D01*
X130624863Y-77373335D01*
X130553435Y-77301906D01*
X130541932Y-77292466D01*
X130539336Y-77289472D01*
X130534821Y-77286630D01*
X130530704Y-77283251D01*
X130527045Y-77281735D01*
X130514450Y-77273807D01*
X130371592Y-77202378D01*
X130369451Y-77201558D01*
X130368581Y-77200914D01*
X130356325Y-77196535D01*
X130344129Y-77191868D01*
X130343045Y-77191791D01*
X130340890Y-77191021D01*
X130071152Y-77123586D01*
X129964792Y-77070406D01*
X129927787Y-77033401D01*
X129883082Y-76943990D01*
X129883082Y-76871951D01*
X129927787Y-76782540D01*
X129964792Y-76745535D01*
X130054206Y-76700828D01*
X130351599Y-76700828D01*
X130542790Y-76764559D01*
X130571464Y-76771079D01*
X130629844Y-76766930D01*
X130682191Y-76740756D01*
X130720539Y-76696542D01*
X130739047Y-76641018D01*
X130734898Y-76582638D01*
X130718993Y-76550828D01*
X131083081Y-76550828D01*
X131083081Y-78050828D01*
X131085963Y-78080092D01*
X131108361Y-78134164D01*
X131149745Y-78175548D01*
X131203817Y-78197946D01*
X131233081Y-78200828D01*
X131590224Y-78200828D01*
X131605029Y-78199369D01*
X131608984Y-78199651D01*
X131614185Y-78198468D01*
X131619488Y-78197946D01*
X131623145Y-78196430D01*
X131637658Y-78193131D01*
X131851944Y-78121703D01*
X131878795Y-78109715D01*
X131882866Y-78106183D01*
X131887846Y-78104121D01*
X131910576Y-78085466D01*
X131963975Y-78032067D01*
X132369974Y-78032067D01*
X132374123Y-78090448D01*
X132400297Y-78142795D01*
X132444511Y-78181142D01*
X132500035Y-78199650D01*
X132558416Y-78195501D01*
X132610763Y-78169327D01*
X132649110Y-78125113D01*
X132661098Y-78098262D01*
X132769767Y-77772257D01*
X133267826Y-77772257D01*
X133376494Y-78098262D01*
X133388482Y-78125113D01*
X133426829Y-78169328D01*
X133479177Y-78195501D01*
X133537557Y-78199651D01*
X133593081Y-78181142D01*
X133637295Y-78142795D01*
X133663469Y-78090448D01*
X133667619Y-78032068D01*
X133661099Y-78003394D01*
X133161098Y-76503394D01*
X133149110Y-76476543D01*
X133142087Y-76468446D01*
X133137295Y-76458861D01*
X133123086Y-76446537D01*
X133110763Y-76432329D01*
X133101177Y-76427536D01*
X133093081Y-76420514D01*
X133075237Y-76414565D01*
X133058416Y-76406155D01*
X133047727Y-76405395D01*
X133037557Y-76402005D01*
X133018791Y-76403338D01*
X133000035Y-76402006D01*
X132989867Y-76405395D01*
X132979177Y-76406155D01*
X132962353Y-76414566D01*
X132944511Y-76420514D01*
X132936416Y-76427534D01*
X132926829Y-76432328D01*
X132914503Y-76446539D01*
X132900297Y-76458861D01*
X132895504Y-76468445D01*
X132888482Y-76476543D01*
X132876494Y-76503394D01*
X132376494Y-78003394D01*
X132369974Y-78032067D01*
X131963975Y-78032067D01*
X132053433Y-77942608D01*
X132062871Y-77931106D01*
X132065866Y-77928510D01*
X132068706Y-77923996D01*
X132072088Y-77919877D01*
X132073603Y-77916217D01*
X132081531Y-77903624D01*
X132152960Y-77760768D01*
X132153779Y-77758625D01*
X132154424Y-77757756D01*
X132158808Y-77745484D01*
X132163469Y-77733304D01*
X132163545Y-77732223D01*
X132164317Y-77730065D01*
X132235745Y-77444351D01*
X132236494Y-77439279D01*
X132237342Y-77437235D01*
X132238427Y-77426212D01*
X132240047Y-77415262D01*
X132239721Y-77413074D01*
X132240224Y-77407971D01*
X132240224Y-77193685D01*
X132239721Y-77188581D01*
X132240047Y-77186394D01*
X132238427Y-77175443D01*
X132237342Y-77164421D01*
X132236494Y-77162376D01*
X132235745Y-77157305D01*
X132164317Y-76871591D01*
X132163545Y-76869432D01*
X132163469Y-76868352D01*
X132158808Y-76856171D01*
X132154424Y-76843900D01*
X132153779Y-76843030D01*
X132152960Y-76840888D01*
X132081531Y-76698032D01*
X132073604Y-76685440D01*
X132072088Y-76681778D01*
X132068704Y-76677655D01*
X132065866Y-76673146D01*
X132062873Y-76670550D01*
X132053433Y-76659048D01*
X131910576Y-76516191D01*
X131887845Y-76497536D01*
X131882865Y-76495473D01*
X131878795Y-76491943D01*
X131851944Y-76479954D01*
X131637658Y-76408526D01*
X131623150Y-76405227D01*
X131619488Y-76403710D01*
X131614179Y-76403187D01*
X131608985Y-76402006D01*
X131605035Y-76402286D01*
X131590224Y-76400828D01*
X131233081Y-76400828D01*
X131203817Y-76403710D01*
X131149745Y-76426108D01*
X131108361Y-76467492D01*
X131085963Y-76521564D01*
X131083081Y-76550828D01*
X130718993Y-76550828D01*
X130708724Y-76530290D01*
X130664510Y-76491943D01*
X130637659Y-76479954D01*
X130423373Y-76408526D01*
X130408865Y-76405227D01*
X130405203Y-76403710D01*
X130399894Y-76403187D01*
X130394700Y-76402006D01*
X130390750Y-76402286D01*
X130375939Y-76400828D01*
X130018796Y-76400828D01*
X129989532Y-76403710D01*
X129984551Y-76405773D01*
X129979177Y-76406155D01*
X129951713Y-76416664D01*
X129808857Y-76488093D01*
X129796263Y-76496020D01*
X129792604Y-76497536D01*
X129788483Y-76500917D01*
X129783971Y-76503758D01*
X129781374Y-76506751D01*
X129769874Y-76516190D01*
X129698445Y-76587618D01*
X129689005Y-76599120D01*
X129686011Y-76601717D01*
X129683169Y-76606231D01*
X129679790Y-76610349D01*
X129678274Y-76614007D01*
X129670346Y-76626603D01*
X129598918Y-76769460D01*
X129588408Y-76796924D01*
X129588026Y-76802299D01*
X129585964Y-76807278D01*
X129583082Y-76836542D01*
X129416415Y-76836542D01*
X129416415Y-76234161D01*
X133834286Y-76234161D01*
X133834286Y-78367495D01*
G37*
G36*
X132574601Y-90570643D02*
G01*
X132611606Y-90607648D01*
X132656314Y-90697062D01*
X132656314Y-90911956D01*
X132611607Y-91001370D01*
X132574603Y-91038373D01*
X132485190Y-91083081D01*
X132270295Y-91083081D01*
X132180882Y-91038374D01*
X132143878Y-91001370D01*
X132099171Y-90911956D01*
X132099171Y-90697062D01*
X132143878Y-90607647D01*
X132180882Y-90570643D01*
X132270295Y-90525938D01*
X132485190Y-90525938D01*
X132574601Y-90570643D01*
G37*
G36*
X133217458Y-90570643D02*
G01*
X133254463Y-90607648D01*
X133299171Y-90697062D01*
X133299171Y-90911956D01*
X133254464Y-91001370D01*
X133217460Y-91038373D01*
X133128047Y-91083081D01*
X133127438Y-91083081D01*
X133038024Y-91038373D01*
X133001020Y-91001370D01*
X132956314Y-90911957D01*
X132956314Y-90697061D01*
X133001019Y-90607649D01*
X133038024Y-90570644D01*
X133127438Y-90525938D01*
X133128047Y-90525938D01*
X133217458Y-90570643D01*
G37*
G36*
X132646030Y-89142072D02*
G01*
X132683035Y-89179077D01*
X132727742Y-89268490D01*
X132727742Y-89483385D01*
X132683036Y-89572797D01*
X132646032Y-89609802D01*
X132556618Y-89654510D01*
X132270295Y-89654510D01*
X132180882Y-89609803D01*
X132143878Y-89572799D01*
X132099171Y-89483385D01*
X132099171Y-89268491D01*
X132143878Y-89179076D01*
X132180882Y-89142072D01*
X132270295Y-89097367D01*
X132556618Y-89097367D01*
X132646030Y-89142072D01*
G37*
G36*
X133217458Y-87713501D02*
G01*
X133254463Y-87750506D01*
X133299171Y-87839920D01*
X133299171Y-88054814D01*
X133254464Y-88144228D01*
X133217460Y-88181231D01*
X133128047Y-88225939D01*
X132841724Y-88225939D01*
X132752310Y-88181231D01*
X132715306Y-88144228D01*
X132670600Y-88054815D01*
X132670600Y-87839919D01*
X132715305Y-87750507D01*
X132752310Y-87713502D01*
X132841724Y-87668796D01*
X133128047Y-87668796D01*
X133217458Y-87713501D01*
G37*
G36*
X132974828Y-86590225D02*
G01*
X132527742Y-86739254D01*
X132527742Y-86441195D01*
X132974828Y-86590225D01*
G37*
G36*
X133299171Y-83840528D02*
G01*
X133254463Y-83929942D01*
X133217458Y-83966947D01*
X133128047Y-84011653D01*
X132984581Y-84011653D01*
X132895167Y-83966946D01*
X132858162Y-83929941D01*
X132813457Y-83840529D01*
X132813457Y-83454510D01*
X133299171Y-83454510D01*
X133299171Y-83840528D01*
G37*
G36*
X133765838Y-92978319D02*
G01*
X131632504Y-92978319D01*
X131632504Y-92018795D01*
X131799171Y-92018795D01*
X131799171Y-92375937D01*
X131802053Y-92405201D01*
X131804114Y-92410178D01*
X131804497Y-92415556D01*
X131815007Y-92443019D01*
X131886436Y-92585877D01*
X131894363Y-92598470D01*
X131895879Y-92602130D01*
X131899260Y-92606249D01*
X131902101Y-92610763D01*
X131905094Y-92613359D01*
X131914534Y-92624861D01*
X131985962Y-92696289D01*
X131997464Y-92705729D01*
X132000060Y-92708722D01*
X132004569Y-92711560D01*
X132008692Y-92714944D01*
X132012354Y-92716460D01*
X132024946Y-92724387D01*
X132167802Y-92795816D01*
X132195266Y-92806325D01*
X132200640Y-92806706D01*
X132205621Y-92808770D01*
X132234885Y-92811652D01*
X132592028Y-92811652D01*
X132621292Y-92808770D01*
X132626272Y-92806706D01*
X132631647Y-92806325D01*
X132659110Y-92795816D01*
X132801967Y-92724387D01*
X132814562Y-92716458D01*
X132818219Y-92714944D01*
X132822336Y-92711564D01*
X132826853Y-92708722D01*
X132829450Y-92705727D01*
X132840950Y-92696290D01*
X132912379Y-92624862D01*
X132921818Y-92613359D01*
X132924814Y-92610762D01*
X132927655Y-92606247D01*
X132931034Y-92602131D01*
X132932549Y-92598472D01*
X132940478Y-92585876D01*
X133011907Y-92443018D01*
X133022416Y-92415555D01*
X133022797Y-92410179D01*
X133024860Y-92405201D01*
X133027742Y-92375937D01*
X133027742Y-92018795D01*
X133024860Y-91989531D01*
X133022797Y-91984552D01*
X133022761Y-91984044D01*
X133299171Y-92011685D01*
X133299171Y-92590223D01*
X133302053Y-92619487D01*
X133324451Y-92673559D01*
X133365835Y-92714943D01*
X133419907Y-92737341D01*
X133478435Y-92737341D01*
X133532507Y-92714943D01*
X133573891Y-92673559D01*
X133596289Y-92619487D01*
X133599171Y-92590223D01*
X133599171Y-91875937D01*
X133598104Y-91865110D01*
X133598470Y-91861457D01*
X133597393Y-91857889D01*
X133596289Y-91846673D01*
X133587895Y-91826410D01*
X133581564Y-91805425D01*
X133576782Y-91799580D01*
X133573891Y-91792601D01*
X133558385Y-91777095D01*
X133544503Y-91760128D01*
X133537847Y-91756557D01*
X133532507Y-91751217D01*
X133512249Y-91742825D01*
X133492928Y-91732461D01*
X133481880Y-91730246D01*
X133478435Y-91728819D01*
X133474761Y-91728819D01*
X133464096Y-91726681D01*
X132749810Y-91655253D01*
X132720405Y-91655209D01*
X132713174Y-91657391D01*
X132705621Y-91657391D01*
X132685361Y-91665782D01*
X132664373Y-91672116D01*
X132658528Y-91676897D01*
X132651549Y-91679789D01*
X132636045Y-91695293D01*
X132619076Y-91709177D01*
X132615504Y-91715833D01*
X132610164Y-91721175D01*
X132601774Y-91741429D01*
X132591409Y-91760752D01*
X132590657Y-91768269D01*
X132587767Y-91775247D01*
X132587767Y-91797170D01*
X132585585Y-91818989D01*
X132587767Y-91826220D01*
X132587767Y-91833773D01*
X132596158Y-91854032D01*
X132602492Y-91875021D01*
X132607273Y-91880865D01*
X132610165Y-91887845D01*
X132628820Y-91910576D01*
X132683036Y-91964792D01*
X132727742Y-92054204D01*
X132727742Y-92340527D01*
X132683036Y-92429939D01*
X132646032Y-92466944D01*
X132556618Y-92511652D01*
X132270295Y-92511652D01*
X132180882Y-92466945D01*
X132143878Y-92429941D01*
X132099171Y-92340527D01*
X132099171Y-92054205D01*
X132143878Y-91964791D01*
X132198094Y-91910575D01*
X132216749Y-91887845D01*
X132239145Y-91833772D01*
X132239145Y-91775246D01*
X132216749Y-91721174D01*
X132175363Y-91679788D01*
X132121291Y-91657392D01*
X132062765Y-91657392D01*
X132008692Y-91679788D01*
X131985962Y-91698443D01*
X131914534Y-91769871D01*
X131905094Y-91781372D01*
X131902101Y-91783969D01*
X131899260Y-91788482D01*
X131895879Y-91792602D01*
X131894363Y-91796261D01*
X131886436Y-91808855D01*
X131815007Y-91951713D01*
X131804497Y-91979176D01*
X131804114Y-91984553D01*
X131802053Y-91989531D01*
X131799171Y-92018795D01*
X131632504Y-92018795D01*
X131632504Y-90661652D01*
X131799171Y-90661652D01*
X131799171Y-90947366D01*
X131802053Y-90976630D01*
X131804114Y-90981607D01*
X131804497Y-90986985D01*
X131815007Y-91014448D01*
X131886436Y-91157306D01*
X131894363Y-91169899D01*
X131895879Y-91173559D01*
X131899260Y-91177678D01*
X131902101Y-91182192D01*
X131905094Y-91184788D01*
X131914534Y-91196290D01*
X131985962Y-91267718D01*
X131997464Y-91277158D01*
X132000060Y-91280151D01*
X132004569Y-91282989D01*
X132008692Y-91286373D01*
X132012354Y-91287889D01*
X132024946Y-91295816D01*
X132167802Y-91367245D01*
X132195266Y-91377754D01*
X132200640Y-91378135D01*
X132205621Y-91380199D01*
X132234885Y-91383081D01*
X132520600Y-91383081D01*
X132549864Y-91380199D01*
X132554844Y-91378135D01*
X132560219Y-91377754D01*
X132587682Y-91367245D01*
X132730539Y-91295816D01*
X132743132Y-91287888D01*
X132746792Y-91286373D01*
X132750911Y-91282991D01*
X132755425Y-91280151D01*
X132758021Y-91277157D01*
X132769523Y-91267718D01*
X132806313Y-91230927D01*
X132843106Y-91267719D01*
X132854606Y-91277157D01*
X132857203Y-91280151D01*
X132861715Y-91282991D01*
X132865836Y-91286373D01*
X132869495Y-91287888D01*
X132882089Y-91295816D01*
X133024945Y-91367245D01*
X133052409Y-91377754D01*
X133057783Y-91378135D01*
X133062764Y-91380199D01*
X133092028Y-91383081D01*
X133163457Y-91383081D01*
X133192721Y-91380199D01*
X133197701Y-91378135D01*
X133203076Y-91377754D01*
X133230539Y-91367245D01*
X133373396Y-91295816D01*
X133385989Y-91287888D01*
X133389649Y-91286373D01*
X133393768Y-91282991D01*
X133398282Y-91280151D01*
X133400878Y-91277157D01*
X133412380Y-91267718D01*
X133483808Y-91196290D01*
X133493248Y-91184787D01*
X133496241Y-91182192D01*
X133499079Y-91177682D01*
X133502463Y-91173560D01*
X133503979Y-91169897D01*
X133511906Y-91157306D01*
X133583335Y-91014448D01*
X133593845Y-90986985D01*
X133594227Y-90981607D01*
X133596289Y-90976630D01*
X133599171Y-90947366D01*
X133599171Y-90661652D01*
X133596289Y-90632388D01*
X133594225Y-90627407D01*
X133593844Y-90622033D01*
X133583335Y-90594569D01*
X133511906Y-90451713D01*
X133503978Y-90439119D01*
X133502463Y-90435460D01*
X133499081Y-90431339D01*
X133496241Y-90426827D01*
X133493247Y-90424230D01*
X133483809Y-90412730D01*
X133412381Y-90341301D01*
X133400878Y-90331861D01*
X133398282Y-90328867D01*
X133393767Y-90326025D01*
X133389650Y-90322646D01*
X133385991Y-90321130D01*
X133373396Y-90313202D01*
X133230539Y-90241774D01*
X133203075Y-90231264D01*
X133197699Y-90230882D01*
X133192721Y-90228820D01*
X133163457Y-90225938D01*
X133092028Y-90225938D01*
X133062764Y-90228820D01*
X133057785Y-90230882D01*
X133052410Y-90231264D01*
X133024947Y-90241774D01*
X132882089Y-90313202D01*
X132869497Y-90321128D01*
X132865836Y-90322645D01*
X132861713Y-90326028D01*
X132857204Y-90328867D01*
X132854609Y-90331858D01*
X132843105Y-90341300D01*
X132806313Y-90378091D01*
X132769524Y-90341301D01*
X132758021Y-90331861D01*
X132755425Y-90328867D01*
X132750910Y-90326025D01*
X132746793Y-90322646D01*
X132743134Y-90321130D01*
X132730539Y-90313202D01*
X132587682Y-90241774D01*
X132560218Y-90231264D01*
X132554842Y-90230882D01*
X132549864Y-90228820D01*
X132520600Y-90225938D01*
X132234885Y-90225938D01*
X132205621Y-90228820D01*
X132200642Y-90230882D01*
X132195267Y-90231264D01*
X132167804Y-90241774D01*
X132024946Y-90313202D01*
X132012351Y-90321130D01*
X132008692Y-90322646D01*
X132004571Y-90326027D01*
X132000061Y-90328867D01*
X131997466Y-90331858D01*
X131985961Y-90341301D01*
X131914533Y-90412730D01*
X131905095Y-90424229D01*
X131902101Y-90426827D01*
X131899258Y-90431343D01*
X131895879Y-90435461D01*
X131894364Y-90439117D01*
X131886436Y-90451713D01*
X131815007Y-90594570D01*
X131804498Y-90622033D01*
X131804116Y-90627407D01*
X131802053Y-90632388D01*
X131799171Y-90661652D01*
X131632504Y-90661652D01*
X131632504Y-89233081D01*
X131799171Y-89233081D01*
X131799171Y-89518795D01*
X131802053Y-89548059D01*
X131804114Y-89553036D01*
X131804497Y-89558414D01*
X131815007Y-89585877D01*
X131886436Y-89728735D01*
X131894363Y-89741328D01*
X131895879Y-89744988D01*
X131899260Y-89749107D01*
X131902101Y-89753621D01*
X131905094Y-89756217D01*
X131914534Y-89767719D01*
X131985962Y-89839147D01*
X131997464Y-89848587D01*
X132000060Y-89851580D01*
X132004569Y-89854418D01*
X132008692Y-89857802D01*
X132012354Y-89859318D01*
X132024946Y-89867245D01*
X132167802Y-89938674D01*
X132195266Y-89949183D01*
X132200640Y-89949564D01*
X132205621Y-89951628D01*
X132234885Y-89954510D01*
X132592028Y-89954510D01*
X132621292Y-89951628D01*
X132626272Y-89949564D01*
X132631647Y-89949183D01*
X132659110Y-89938674D01*
X132801967Y-89867245D01*
X132814562Y-89859316D01*
X132818219Y-89857802D01*
X132822336Y-89854422D01*
X132826853Y-89851580D01*
X132829450Y-89848585D01*
X132840950Y-89839148D01*
X132912379Y-89767720D01*
X132921818Y-89756217D01*
X132924814Y-89753620D01*
X132927655Y-89749105D01*
X132931034Y-89744989D01*
X132932549Y-89741330D01*
X132940478Y-89728734D01*
X133011907Y-89585876D01*
X133022416Y-89558413D01*
X133022797Y-89553037D01*
X133024860Y-89548059D01*
X133027742Y-89518795D01*
X133027742Y-89233081D01*
X133024860Y-89203817D01*
X133022797Y-89198838D01*
X133022416Y-89193463D01*
X133011906Y-89166000D01*
X133004695Y-89151577D01*
X133030441Y-89158014D01*
X133210748Y-89278219D01*
X133254464Y-89321935D01*
X133299171Y-89411348D01*
X133299171Y-89661653D01*
X133302053Y-89690917D01*
X133324451Y-89744989D01*
X133365835Y-89786373D01*
X133419907Y-89808771D01*
X133478435Y-89808771D01*
X133532507Y-89786373D01*
X133573891Y-89744989D01*
X133596289Y-89690917D01*
X133599171Y-89661653D01*
X133599171Y-89375938D01*
X133596289Y-89346674D01*
X133594225Y-89341693D01*
X133593844Y-89336319D01*
X133583335Y-89308855D01*
X133511906Y-89165999D01*
X133503979Y-89153407D01*
X133502463Y-89149745D01*
X133499079Y-89145622D01*
X133496241Y-89141113D01*
X133493248Y-89138517D01*
X133483808Y-89127015D01*
X133412380Y-89055587D01*
X133412300Y-89055522D01*
X133412270Y-89055476D01*
X133400884Y-89046153D01*
X133389649Y-89036932D01*
X133389598Y-89036911D01*
X133389519Y-89036846D01*
X133175233Y-88893988D01*
X133159077Y-88885373D01*
X133156099Y-88883167D01*
X133152582Y-88881910D01*
X133149286Y-88880153D01*
X133145648Y-88879433D01*
X133128408Y-88873274D01*
X132842694Y-88801846D01*
X132837622Y-88801096D01*
X132835578Y-88800249D01*
X132824555Y-88799163D01*
X132813605Y-88797544D01*
X132811417Y-88797869D01*
X132806314Y-88797367D01*
X132234885Y-88797367D01*
X132205621Y-88800249D01*
X132200642Y-88802311D01*
X132195267Y-88802693D01*
X132167804Y-88813203D01*
X132024946Y-88884631D01*
X132012351Y-88892559D01*
X132008692Y-88894075D01*
X132004571Y-88897456D01*
X132000061Y-88900296D01*
X131997466Y-88903287D01*
X131985961Y-88912730D01*
X131914533Y-88984159D01*
X131905095Y-88995658D01*
X131902101Y-88998256D01*
X131899258Y-89002772D01*
X131895879Y-89006890D01*
X131894364Y-89010546D01*
X131886436Y-89023142D01*
X131815007Y-89165999D01*
X131804498Y-89193462D01*
X131804116Y-89198836D01*
X131802053Y-89203817D01*
X131799171Y-89233081D01*
X131632504Y-89233081D01*
X131632504Y-87661653D01*
X131799171Y-87661653D01*
X131799171Y-87947367D01*
X131802053Y-87976631D01*
X131804116Y-87981611D01*
X131804498Y-87986986D01*
X131815007Y-88014449D01*
X131886436Y-88157306D01*
X131894364Y-88169901D01*
X131895879Y-88173558D01*
X131899258Y-88177675D01*
X131902101Y-88182192D01*
X131905095Y-88184789D01*
X131914533Y-88196289D01*
X131985961Y-88267718D01*
X131986043Y-88267785D01*
X131986073Y-88267830D01*
X131997612Y-88277280D01*
X132008692Y-88286373D01*
X132008739Y-88286392D01*
X132008823Y-88286461D01*
X132223109Y-88429318D01*
X132239264Y-88437931D01*
X132242242Y-88440138D01*
X132245758Y-88441394D01*
X132249057Y-88443153D01*
X132252695Y-88443872D01*
X132269933Y-88450031D01*
X132555647Y-88521460D01*
X132560719Y-88522210D01*
X132562764Y-88523057D01*
X132573783Y-88524142D01*
X132584736Y-88525762D01*
X132586924Y-88525436D01*
X132592028Y-88525939D01*
X133163457Y-88525939D01*
X133192721Y-88523057D01*
X133197701Y-88520993D01*
X133203076Y-88520612D01*
X133230539Y-88510103D01*
X133373396Y-88438674D01*
X133385989Y-88430746D01*
X133389649Y-88429231D01*
X133393768Y-88425849D01*
X133398282Y-88423009D01*
X133400878Y-88420015D01*
X133412380Y-88410576D01*
X133483808Y-88339148D01*
X133493248Y-88327645D01*
X133496241Y-88325050D01*
X133499079Y-88320540D01*
X133502463Y-88316418D01*
X133503979Y-88312755D01*
X133511906Y-88300164D01*
X133583335Y-88157306D01*
X133593845Y-88129843D01*
X133594227Y-88124465D01*
X133596289Y-88119488D01*
X133599171Y-88090224D01*
X133599171Y-87804510D01*
X133596289Y-87775246D01*
X133594225Y-87770265D01*
X133593844Y-87764891D01*
X133583335Y-87737427D01*
X133511906Y-87594571D01*
X133503978Y-87581977D01*
X133502463Y-87578318D01*
X133499081Y-87574197D01*
X133496241Y-87569685D01*
X133493247Y-87567088D01*
X133483809Y-87555588D01*
X133412381Y-87484159D01*
X133400878Y-87474719D01*
X133398282Y-87471725D01*
X133393767Y-87468883D01*
X133389650Y-87465504D01*
X133385991Y-87463988D01*
X133373396Y-87456060D01*
X133230539Y-87384632D01*
X133203075Y-87374122D01*
X133197699Y-87373740D01*
X133192721Y-87371678D01*
X133163457Y-87368796D01*
X132806314Y-87368796D01*
X132777050Y-87371678D01*
X132772071Y-87373740D01*
X132766696Y-87374122D01*
X132739233Y-87384632D01*
X132596375Y-87456060D01*
X132583783Y-87463986D01*
X132580122Y-87465503D01*
X132575999Y-87468886D01*
X132571490Y-87471725D01*
X132568895Y-87474716D01*
X132557391Y-87484158D01*
X132485962Y-87555587D01*
X132476522Y-87567088D01*
X132473529Y-87569685D01*
X132470688Y-87574198D01*
X132467307Y-87578318D01*
X132465791Y-87581977D01*
X132457864Y-87594571D01*
X132386436Y-87737428D01*
X132375926Y-87764892D01*
X132375544Y-87770267D01*
X132373482Y-87775246D01*
X132370600Y-87804510D01*
X132370600Y-88090224D01*
X132373482Y-88119488D01*
X132375544Y-88124466D01*
X132375926Y-88129842D01*
X132386436Y-88157305D01*
X132393646Y-88171727D01*
X132367900Y-88165290D01*
X132187590Y-88045083D01*
X132143878Y-88001371D01*
X132099171Y-87911956D01*
X132099171Y-87661653D01*
X132096289Y-87632389D01*
X132073891Y-87578317D01*
X132032507Y-87536933D01*
X131978435Y-87514535D01*
X131919907Y-87514535D01*
X131865835Y-87536933D01*
X131824451Y-87578317D01*
X131802053Y-87632389D01*
X131799171Y-87661653D01*
X131632504Y-87661653D01*
X131632504Y-86071464D01*
X131800349Y-86071464D01*
X131804498Y-86129845D01*
X131830672Y-86182192D01*
X131874886Y-86220539D01*
X131901737Y-86232527D01*
X132227742Y-86341195D01*
X132227742Y-86839254D01*
X131901737Y-86947923D01*
X131874886Y-86959911D01*
X131830672Y-86998258D01*
X131804498Y-87050605D01*
X131800349Y-87108986D01*
X131818857Y-87164510D01*
X131857204Y-87208724D01*
X131909551Y-87234898D01*
X131967932Y-87239047D01*
X131996605Y-87232527D01*
X133496605Y-86732527D01*
X133523456Y-86720539D01*
X133531553Y-86713516D01*
X133541138Y-86708724D01*
X133553459Y-86694517D01*
X133567671Y-86682192D01*
X133572464Y-86672604D01*
X133579485Y-86664510D01*
X133585433Y-86646665D01*
X133593844Y-86629844D01*
X133594603Y-86619156D01*
X133597994Y-86608986D01*
X133596660Y-86590225D01*
X133597994Y-86571464D01*
X133594603Y-86561293D01*
X133593844Y-86550606D01*
X133585433Y-86533784D01*
X133579485Y-86515940D01*
X133572464Y-86507845D01*
X133567671Y-86498258D01*
X133553459Y-86485932D01*
X133541138Y-86471726D01*
X133531553Y-86466933D01*
X133523456Y-86459911D01*
X133496605Y-86447923D01*
X131996605Y-85947923D01*
X131967932Y-85941403D01*
X131909551Y-85945552D01*
X131857204Y-85971726D01*
X131818857Y-86015940D01*
X131800349Y-86071464D01*
X131632504Y-86071464D01*
X131632504Y-85233082D01*
X131799171Y-85233082D01*
X131799171Y-85375939D01*
X131800629Y-85390750D01*
X131800349Y-85394700D01*
X131801530Y-85399894D01*
X131802053Y-85405203D01*
X131803570Y-85408865D01*
X131806869Y-85423373D01*
X131878297Y-85637659D01*
X131890286Y-85664510D01*
X131893816Y-85668580D01*
X131895879Y-85673560D01*
X131914534Y-85696291D01*
X131985962Y-85767719D01*
X132008692Y-85786374D01*
X132062765Y-85808770D01*
X132121291Y-85808770D01*
X132175363Y-85786374D01*
X132216749Y-85744988D01*
X132239145Y-85690916D01*
X132239145Y-85632390D01*
X132216749Y-85578317D01*
X132198094Y-85555587D01*
X132151704Y-85509197D01*
X132099171Y-85351598D01*
X132099171Y-85257422D01*
X132151704Y-85099823D01*
X132252311Y-84999216D01*
X132358670Y-84946037D01*
X132610492Y-84883082D01*
X132787850Y-84883082D01*
X133039671Y-84946036D01*
X133146031Y-84999217D01*
X133246637Y-85099823D01*
X133299171Y-85257424D01*
X133299171Y-85351596D01*
X133246637Y-85509197D01*
X133200248Y-85555587D01*
X133181593Y-85578318D01*
X133159196Y-85632390D01*
X133159196Y-85690916D01*
X133181593Y-85744988D01*
X133222979Y-85786374D01*
X133277051Y-85808771D01*
X133335577Y-85808771D01*
X133389649Y-85786374D01*
X133412380Y-85767719D01*
X133483808Y-85696291D01*
X133502463Y-85673561D01*
X133504526Y-85668580D01*
X133508056Y-85664510D01*
X133520044Y-85637659D01*
X133591473Y-85423374D01*
X133594772Y-85408864D01*
X133596289Y-85405203D01*
X133596811Y-85399894D01*
X133597993Y-85394700D01*
X133597712Y-85390750D01*
X133599171Y-85375939D01*
X133599171Y-85233082D01*
X133597712Y-85218270D01*
X133597993Y-85214321D01*
X133596811Y-85209126D01*
X133596289Y-85203818D01*
X133594772Y-85200156D01*
X133591473Y-85185647D01*
X133520044Y-84971362D01*
X133508056Y-84944511D01*
X133504526Y-84940441D01*
X133502463Y-84935460D01*
X133483808Y-84912730D01*
X133340951Y-84769873D01*
X133329449Y-84760433D01*
X133326853Y-84757440D01*
X133322339Y-84754599D01*
X133318220Y-84751218D01*
X133314560Y-84749702D01*
X133301967Y-84741775D01*
X133159110Y-84670346D01*
X133156969Y-84669526D01*
X133156099Y-84668882D01*
X133143821Y-84664495D01*
X133131647Y-84659837D01*
X133130566Y-84659760D01*
X133128408Y-84658989D01*
X132842694Y-84587561D01*
X132837622Y-84586811D01*
X132835578Y-84585964D01*
X132824555Y-84584878D01*
X132813605Y-84583259D01*
X132811417Y-84583584D01*
X132806314Y-84583082D01*
X132592028Y-84583082D01*
X132586924Y-84583584D01*
X132584737Y-84583259D01*
X132573786Y-84584878D01*
X132562764Y-84585964D01*
X132560719Y-84586811D01*
X132555648Y-84587561D01*
X132269934Y-84658989D01*
X132267775Y-84659760D01*
X132266695Y-84659837D01*
X132254514Y-84664497D01*
X132242243Y-84668882D01*
X132241373Y-84669526D01*
X132239231Y-84670346D01*
X132096375Y-84741775D01*
X132083783Y-84749701D01*
X132080121Y-84751218D01*
X132075998Y-84754601D01*
X132071489Y-84757440D01*
X132068893Y-84760432D01*
X132057391Y-84769873D01*
X131914534Y-84912730D01*
X131895879Y-84935461D01*
X131893816Y-84940440D01*
X131890286Y-84944511D01*
X131878297Y-84971362D01*
X131806869Y-85185648D01*
X131803570Y-85200155D01*
X131802053Y-85203818D01*
X131801530Y-85209126D01*
X131800349Y-85214321D01*
X131800629Y-85218270D01*
X131799171Y-85233082D01*
X131632504Y-85233082D01*
X131632504Y-83275246D01*
X131802053Y-83275246D01*
X131802053Y-83333774D01*
X131824451Y-83387846D01*
X131865835Y-83429230D01*
X131919907Y-83451628D01*
X131949171Y-83454510D01*
X132513457Y-83454510D01*
X132513457Y-83875939D01*
X132516339Y-83905203D01*
X132518401Y-83910181D01*
X132518783Y-83915557D01*
X132529293Y-83943021D01*
X132600721Y-84085878D01*
X132608648Y-84098471D01*
X132610164Y-84102131D01*
X132613545Y-84106250D01*
X132616386Y-84110764D01*
X132619379Y-84113360D01*
X132628819Y-84124862D01*
X132700248Y-84196291D01*
X132711752Y-84205732D01*
X132714347Y-84208724D01*
X132718856Y-84211562D01*
X132722979Y-84214946D01*
X132726640Y-84216462D01*
X132739232Y-84224389D01*
X132882090Y-84295817D01*
X132909553Y-84306327D01*
X132914928Y-84306708D01*
X132919907Y-84308771D01*
X132949171Y-84311653D01*
X133163457Y-84311653D01*
X133192721Y-84308771D01*
X133197699Y-84306708D01*
X133203075Y-84306327D01*
X133230539Y-84295817D01*
X133373396Y-84224389D01*
X133385991Y-84216460D01*
X133389650Y-84214945D01*
X133393767Y-84211565D01*
X133398282Y-84208724D01*
X133400878Y-84205729D01*
X133412381Y-84196290D01*
X133483809Y-84124861D01*
X133493247Y-84113360D01*
X133496241Y-84110764D01*
X133499081Y-84106251D01*
X133502463Y-84102131D01*
X133503978Y-84098471D01*
X133511906Y-84085878D01*
X133583335Y-83943022D01*
X133593844Y-83915558D01*
X133594225Y-83910183D01*
X133596289Y-83905203D01*
X133599171Y-83875939D01*
X133599171Y-83304510D01*
X133596289Y-83275246D01*
X133573891Y-83221174D01*
X133532507Y-83179790D01*
X133478435Y-83157392D01*
X133449171Y-83154510D01*
X131949171Y-83154510D01*
X131919907Y-83157392D01*
X131865835Y-83179790D01*
X131824451Y-83221174D01*
X131802053Y-83275246D01*
X131632504Y-83275246D01*
X131632504Y-82987843D01*
X133765838Y-82987843D01*
X133765838Y-92978319D01*
G37*
D12*
G36*
X122364577Y-119578086D02*
G01*
X119658562Y-119578086D01*
X119658562Y-118367219D01*
X119769673Y-118367219D01*
X119769673Y-119367219D01*
X119771594Y-119386728D01*
X119786526Y-119422776D01*
X119814116Y-119450366D01*
X119850164Y-119465298D01*
X119889182Y-119465298D01*
X119925230Y-119450366D01*
X119952820Y-119422776D01*
X119967752Y-119386728D01*
X119969673Y-119367219D01*
X119969673Y-118367219D01*
X120245863Y-118367219D01*
X120245863Y-119367219D01*
X120247784Y-119386728D01*
X120262716Y-119422776D01*
X120290306Y-119450366D01*
X120326354Y-119465298D01*
X120365372Y-119465298D01*
X120401420Y-119450366D01*
X120429010Y-119422776D01*
X120443942Y-119386728D01*
X120445863Y-119367219D01*
X120445863Y-118743775D01*
X120830467Y-119416833D01*
X120833385Y-119420943D01*
X120834144Y-119422776D01*
X120836010Y-119424642D01*
X120841814Y-119432818D01*
X120852330Y-119440962D01*
X120861734Y-119450366D01*
X120867621Y-119452804D01*
X120872663Y-119456709D01*
X120885495Y-119460208D01*
X120897782Y-119465298D01*
X120904158Y-119465298D01*
X120910307Y-119466975D01*
X120923500Y-119465298D01*
X120936800Y-119465298D01*
X120942688Y-119462858D01*
X120949013Y-119462055D01*
X120960562Y-119455454D01*
X120972848Y-119450366D01*
X120977355Y-119445858D01*
X120982890Y-119442696D01*
X120991034Y-119432179D01*
X121000438Y-119422776D01*
X121002876Y-119416888D01*
X121006781Y-119411847D01*
X121010280Y-119399014D01*
X121015370Y-119386728D01*
X121016352Y-119376750D01*
X121017047Y-119374204D01*
X121016796Y-119372236D01*
X121017291Y-119367219D01*
X121017291Y-118966757D01*
X121295403Y-118966757D01*
X121295403Y-119005775D01*
X121310335Y-119041823D01*
X121337925Y-119069413D01*
X121373973Y-119084345D01*
X121393482Y-119086266D01*
X121674434Y-119086266D01*
X121674434Y-119367219D01*
X121676355Y-119386728D01*
X121691287Y-119422776D01*
X121718877Y-119450366D01*
X121754925Y-119465298D01*
X121793943Y-119465298D01*
X121829991Y-119450366D01*
X121857581Y-119422776D01*
X121872513Y-119386728D01*
X121874434Y-119367219D01*
X121874434Y-119086266D01*
X122155387Y-119086266D01*
X122174896Y-119084345D01*
X122210944Y-119069413D01*
X122238534Y-119041823D01*
X122253466Y-119005775D01*
X122253466Y-118966757D01*
X122238534Y-118930709D01*
X122210944Y-118903119D01*
X122174896Y-118888187D01*
X122155387Y-118886266D01*
X121874434Y-118886266D01*
X121874434Y-118605314D01*
X121872513Y-118585805D01*
X121857581Y-118549757D01*
X121829991Y-118522167D01*
X121793943Y-118507235D01*
X121754925Y-118507235D01*
X121718877Y-118522167D01*
X121691287Y-118549757D01*
X121676355Y-118585805D01*
X121674434Y-118605314D01*
X121674434Y-118886266D01*
X121393482Y-118886266D01*
X121373973Y-118888187D01*
X121337925Y-118903119D01*
X121310335Y-118930709D01*
X121295403Y-118966757D01*
X121017291Y-118966757D01*
X121017291Y-118367219D01*
X121015370Y-118347710D01*
X121000438Y-118311662D01*
X120972848Y-118284072D01*
X120936800Y-118269140D01*
X120897782Y-118269140D01*
X120861734Y-118284072D01*
X120834144Y-118311662D01*
X120819212Y-118347710D01*
X120817291Y-118367219D01*
X120817291Y-118990662D01*
X120432687Y-118317605D01*
X120429768Y-118313494D01*
X120429010Y-118311662D01*
X120427143Y-118309795D01*
X120421340Y-118301620D01*
X120410825Y-118293477D01*
X120401420Y-118284072D01*
X120395529Y-118281632D01*
X120390491Y-118277730D01*
X120377662Y-118274231D01*
X120365372Y-118269140D01*
X120358997Y-118269140D01*
X120352848Y-118267463D01*
X120339655Y-118269140D01*
X120326354Y-118269140D01*
X120320465Y-118271579D01*
X120314141Y-118272383D01*
X120302591Y-118278983D01*
X120290306Y-118284072D01*
X120285798Y-118288579D01*
X120280264Y-118291742D01*
X120272121Y-118302256D01*
X120262716Y-118311662D01*
X120260276Y-118317552D01*
X120256374Y-118322591D01*
X120252875Y-118335419D01*
X120247784Y-118347710D01*
X120246801Y-118357687D01*
X120246107Y-118360234D01*
X120246357Y-118362201D01*
X120245863Y-118367219D01*
X119969673Y-118367219D01*
X119967752Y-118347710D01*
X119952820Y-118311662D01*
X119925230Y-118284072D01*
X119889182Y-118269140D01*
X119850164Y-118269140D01*
X119814116Y-118284072D01*
X119786526Y-118311662D01*
X119771594Y-118347710D01*
X119769673Y-118367219D01*
X119658562Y-118367219D01*
X119658562Y-118156352D01*
X122364577Y-118156352D01*
X122364577Y-119578086D01*
G37*
D11*
G36*
X125366340Y-73753361D02*
G01*
X125466947Y-73853968D01*
X125520126Y-73960327D01*
X125583082Y-74212148D01*
X125583082Y-74389507D01*
X125520126Y-74641328D01*
X125466947Y-74747688D01*
X125366341Y-74848294D01*
X125208739Y-74900828D01*
X125025939Y-74900828D01*
X125025939Y-73700828D01*
X125208742Y-73700828D01*
X125366340Y-73753361D01*
G37*
G36*
X126049749Y-75367495D02*
G01*
X121416415Y-75367495D01*
X121416415Y-74193685D01*
X121583082Y-74193685D01*
X121583082Y-74407971D01*
X121583584Y-74413074D01*
X121583259Y-74415262D01*
X121584878Y-74426212D01*
X121585964Y-74437235D01*
X121586811Y-74439279D01*
X121587561Y-74444351D01*
X121658989Y-74730065D01*
X121659760Y-74732223D01*
X121659837Y-74733304D01*
X121664495Y-74745478D01*
X121668882Y-74757756D01*
X121669526Y-74758626D01*
X121670346Y-74760767D01*
X121741775Y-74903624D01*
X121749702Y-74916217D01*
X121751218Y-74919877D01*
X121754599Y-74923996D01*
X121757440Y-74928510D01*
X121760433Y-74931106D01*
X121769873Y-74942608D01*
X121912730Y-75085466D01*
X121935460Y-75104121D01*
X121940439Y-75106183D01*
X121944511Y-75109715D01*
X121971362Y-75121703D01*
X122185648Y-75193131D01*
X122200160Y-75196430D01*
X122203818Y-75197946D01*
X122209120Y-75198468D01*
X122214322Y-75199651D01*
X122218276Y-75199369D01*
X122233082Y-75200828D01*
X122375939Y-75200828D01*
X122390744Y-75199369D01*
X122394699Y-75199651D01*
X122399900Y-75198468D01*
X122405203Y-75197946D01*
X122408860Y-75196430D01*
X122423373Y-75193131D01*
X122637659Y-75121703D01*
X122664510Y-75109715D01*
X122668583Y-75106181D01*
X122673561Y-75104120D01*
X122696292Y-75085465D01*
X122767720Y-75014036D01*
X122786374Y-74991306D01*
X122806545Y-74942608D01*
X122808771Y-74937235D01*
X122811653Y-74907971D01*
X122811653Y-74407971D01*
X122808771Y-74378707D01*
X122786373Y-74324635D01*
X122744989Y-74283251D01*
X122690917Y-74260853D01*
X122661653Y-74257971D01*
X122375939Y-74257971D01*
X122346675Y-74260853D01*
X122292603Y-74283251D01*
X122251219Y-74324635D01*
X122228821Y-74378707D01*
X122228821Y-74437235D01*
X122251219Y-74491307D01*
X122292603Y-74532691D01*
X122346675Y-74555089D01*
X122375939Y-74557971D01*
X122511653Y-74557971D01*
X122511653Y-74845839D01*
X122509198Y-74848294D01*
X122351596Y-74900828D01*
X122257425Y-74900828D01*
X122099822Y-74848294D01*
X121999217Y-74747688D01*
X121946036Y-74641328D01*
X121883082Y-74389507D01*
X121883082Y-74212148D01*
X121946036Y-73960327D01*
X121999217Y-73853967D01*
X122099823Y-73753361D01*
X122257425Y-73700828D01*
X122411958Y-73700828D01*
X122523142Y-73756421D01*
X122550606Y-73766930D01*
X122608986Y-73771079D01*
X122664508Y-73752572D01*
X122708724Y-73714225D01*
X122734898Y-73661876D01*
X122739047Y-73603496D01*
X122721491Y-73550828D01*
X123154510Y-73550828D01*
X123154510Y-75050828D01*
X123157392Y-75080092D01*
X123179790Y-75134164D01*
X123221174Y-75175548D01*
X123275246Y-75197946D01*
X123333774Y-75197946D01*
X123387846Y-75175548D01*
X123429230Y-75134164D01*
X123451628Y-75080092D01*
X123454510Y-75050828D01*
X123454510Y-74115661D01*
X124031417Y-75125249D01*
X124035794Y-75131416D01*
X124036933Y-75134164D01*
X124039732Y-75136963D01*
X124048438Y-75149227D01*
X124064211Y-75161442D01*
X124078317Y-75175548D01*
X124087150Y-75179206D01*
X124094712Y-75185063D01*
X124113960Y-75190312D01*
X124132389Y-75197946D01*
X124141951Y-75197946D01*
X124151176Y-75200462D01*
X124170967Y-75197946D01*
X124190917Y-75197946D01*
X124199750Y-75194286D01*
X124209236Y-75193081D01*
X124226558Y-75183182D01*
X124244989Y-75175548D01*
X124251749Y-75168787D01*
X124260052Y-75164043D01*
X124272265Y-75148271D01*
X124286373Y-75134164D01*
X124290032Y-75125328D01*
X124295887Y-75117769D01*
X124301135Y-75098524D01*
X124308771Y-75080092D01*
X124310244Y-75065127D01*
X124311287Y-75061306D01*
X124310911Y-75058354D01*
X124311653Y-75050828D01*
X124311653Y-73550828D01*
X124725939Y-73550828D01*
X124725939Y-75050828D01*
X124728821Y-75080092D01*
X124751219Y-75134164D01*
X124792603Y-75175548D01*
X124846675Y-75197946D01*
X124875939Y-75200828D01*
X125233082Y-75200828D01*
X125247887Y-75199369D01*
X125251842Y-75199651D01*
X125257043Y-75198468D01*
X125262346Y-75197946D01*
X125266003Y-75196430D01*
X125280516Y-75193131D01*
X125494802Y-75121703D01*
X125521653Y-75109715D01*
X125525724Y-75106183D01*
X125530704Y-75104121D01*
X125553434Y-75085466D01*
X125696291Y-74942608D01*
X125705729Y-74931106D01*
X125708724Y-74928510D01*
X125711564Y-74923996D01*
X125714946Y-74919877D01*
X125716461Y-74916217D01*
X125724389Y-74903624D01*
X125795818Y-74760768D01*
X125796637Y-74758625D01*
X125797282Y-74757756D01*
X125801666Y-74745484D01*
X125806327Y-74733304D01*
X125806403Y-74732223D01*
X125807175Y-74730065D01*
X125878603Y-74444351D01*
X125879352Y-74439279D01*
X125880200Y-74437235D01*
X125881285Y-74426212D01*
X125882905Y-74415262D01*
X125882579Y-74413074D01*
X125883082Y-74407971D01*
X125883082Y-74193685D01*
X125882579Y-74188581D01*
X125882905Y-74186394D01*
X125881285Y-74175443D01*
X125880200Y-74164421D01*
X125879352Y-74162376D01*
X125878603Y-74157305D01*
X125807175Y-73871591D01*
X125806403Y-73869432D01*
X125806327Y-73868352D01*
X125801666Y-73856171D01*
X125797282Y-73843900D01*
X125796637Y-73843030D01*
X125795818Y-73840888D01*
X125724389Y-73698032D01*
X125716462Y-73685440D01*
X125714946Y-73681778D01*
X125711562Y-73677655D01*
X125708724Y-73673146D01*
X125705731Y-73670550D01*
X125696291Y-73659048D01*
X125553434Y-73516191D01*
X125530703Y-73497536D01*
X125525723Y-73495473D01*
X125521653Y-73491943D01*
X125494802Y-73479954D01*
X125280516Y-73408526D01*
X125266008Y-73405227D01*
X125262346Y-73403710D01*
X125257037Y-73403187D01*
X125251843Y-73402006D01*
X125247893Y-73402286D01*
X125233082Y-73400828D01*
X124875939Y-73400828D01*
X124846675Y-73403710D01*
X124792603Y-73426108D01*
X124751219Y-73467492D01*
X124728821Y-73521564D01*
X124725939Y-73550828D01*
X124311653Y-73550828D01*
X124308771Y-73521564D01*
X124286373Y-73467492D01*
X124244989Y-73426108D01*
X124190917Y-73403710D01*
X124132389Y-73403710D01*
X124078317Y-73426108D01*
X124036933Y-73467492D01*
X124014535Y-73521564D01*
X124011653Y-73550828D01*
X124011653Y-74485992D01*
X123434746Y-73476407D01*
X123430368Y-73470239D01*
X123429230Y-73467492D01*
X123426430Y-73464692D01*
X123417725Y-73452429D01*
X123401953Y-73440215D01*
X123387846Y-73426108D01*
X123379010Y-73422448D01*
X123371451Y-73416594D01*
X123352206Y-73411345D01*
X123333774Y-73403710D01*
X123324212Y-73403710D01*
X123314987Y-73401194D01*
X123295196Y-73403710D01*
X123275246Y-73403710D01*
X123266412Y-73407369D01*
X123256927Y-73408575D01*
X123239604Y-73418473D01*
X123221174Y-73426108D01*
X123214413Y-73432868D01*
X123206111Y-73437613D01*
X123193897Y-73453384D01*
X123179790Y-73467492D01*
X123176130Y-73476327D01*
X123170276Y-73483887D01*
X123165027Y-73503131D01*
X123157392Y-73521564D01*
X123155918Y-73536530D01*
X123154876Y-73540351D01*
X123155251Y-73543302D01*
X123154510Y-73550828D01*
X122721491Y-73550828D01*
X122720539Y-73547973D01*
X122682193Y-73503758D01*
X122657307Y-73488093D01*
X122514450Y-73416664D01*
X122486987Y-73406155D01*
X122481612Y-73405773D01*
X122476632Y-73403710D01*
X122447368Y-73400828D01*
X122233082Y-73400828D01*
X122218270Y-73402286D01*
X122214321Y-73402006D01*
X122209126Y-73403187D01*
X122203818Y-73403710D01*
X122200156Y-73405226D01*
X122185647Y-73408526D01*
X121971362Y-73479955D01*
X121944511Y-73491943D01*
X121940441Y-73495472D01*
X121935460Y-73497536D01*
X121912730Y-73516191D01*
X121769873Y-73659048D01*
X121760433Y-73670549D01*
X121757440Y-73673146D01*
X121754599Y-73677659D01*
X121751218Y-73681779D01*
X121749702Y-73685438D01*
X121741775Y-73698032D01*
X121670346Y-73840889D01*
X121669526Y-73843029D01*
X121668882Y-73843900D01*
X121664495Y-73856177D01*
X121659837Y-73868352D01*
X121659760Y-73869432D01*
X121658989Y-73871591D01*
X121587561Y-74157305D01*
X121586811Y-74162376D01*
X121585964Y-74164421D01*
X121584878Y-74175443D01*
X121583259Y-74186394D01*
X121583584Y-74188581D01*
X121583082Y-74193685D01*
X121416415Y-74193685D01*
X121416415Y-73234161D01*
X126049749Y-73234161D01*
X126049749Y-75367495D01*
G37*
G36*
X133761152Y-75367495D02*
G01*
X129416415Y-75367495D01*
X129416415Y-73836542D01*
X129583082Y-73836542D01*
X129583082Y-73979400D01*
X129585964Y-74008664D01*
X129588026Y-74013642D01*
X129588408Y-74019018D01*
X129598918Y-74046482D01*
X129670346Y-74189339D01*
X129678274Y-74201934D01*
X129679790Y-74205593D01*
X129683169Y-74209710D01*
X129686011Y-74214225D01*
X129689005Y-74216821D01*
X129698445Y-74228324D01*
X129769874Y-74299752D01*
X129781374Y-74309190D01*
X129783971Y-74312184D01*
X129788483Y-74315024D01*
X129792604Y-74318406D01*
X129796263Y-74319921D01*
X129808857Y-74327849D01*
X129951713Y-74399278D01*
X129953855Y-74400097D01*
X129954725Y-74400742D01*
X129966996Y-74405126D01*
X129979177Y-74409787D01*
X129980257Y-74409863D01*
X129982416Y-74410635D01*
X130252154Y-74478069D01*
X130358513Y-74531248D01*
X130395517Y-74568253D01*
X130440225Y-74657667D01*
X130440225Y-74729703D01*
X130395517Y-74819117D01*
X130358514Y-74856121D01*
X130269101Y-74900828D01*
X129971711Y-74900828D01*
X129780516Y-74837097D01*
X129751842Y-74830577D01*
X129693462Y-74834727D01*
X129641115Y-74860901D01*
X129602767Y-74905115D01*
X129584259Y-74960640D01*
X129588409Y-75019020D01*
X129614583Y-75071367D01*
X129658797Y-75109715D01*
X129685648Y-75121703D01*
X129899934Y-75193131D01*
X129914446Y-75196430D01*
X129918104Y-75197946D01*
X129923406Y-75198468D01*
X129928608Y-75199651D01*
X129932562Y-75199369D01*
X129947368Y-75200828D01*
X130304510Y-75200828D01*
X130333774Y-75197946D01*
X130338752Y-75195883D01*
X130344128Y-75195502D01*
X130371591Y-75184992D01*
X130514450Y-75113564D01*
X130527044Y-75105635D01*
X130530704Y-75104120D01*
X130534824Y-75100738D01*
X130539335Y-75097899D01*
X130541929Y-75094907D01*
X130553435Y-75085465D01*
X130624863Y-75014036D01*
X130634301Y-75002535D01*
X130637295Y-74999939D01*
X130640135Y-74995426D01*
X130643517Y-74991306D01*
X130645032Y-74987646D01*
X130652960Y-74975053D01*
X130724389Y-74832197D01*
X130734898Y-74804733D01*
X130735279Y-74799358D01*
X130737343Y-74794378D01*
X130740225Y-74765114D01*
X130740225Y-74622257D01*
X130737343Y-74592993D01*
X130735279Y-74588012D01*
X130734898Y-74582638D01*
X130724389Y-74555174D01*
X130652960Y-74412318D01*
X130645032Y-74399724D01*
X130643517Y-74396065D01*
X130640135Y-74391944D01*
X130637295Y-74387432D01*
X130634301Y-74384835D01*
X130624863Y-74373335D01*
X130553435Y-74301906D01*
X130541932Y-74292466D01*
X130539336Y-74289472D01*
X130534821Y-74286630D01*
X130530704Y-74283251D01*
X130527045Y-74281735D01*
X130514450Y-74273807D01*
X130371592Y-74202378D01*
X130369451Y-74201558D01*
X130368581Y-74200914D01*
X130356325Y-74196535D01*
X130348877Y-74193685D01*
X131011653Y-74193685D01*
X131011653Y-74407971D01*
X131012155Y-74413074D01*
X131011830Y-74415262D01*
X131013449Y-74426212D01*
X131014535Y-74437235D01*
X131015382Y-74439279D01*
X131016132Y-74444351D01*
X131087560Y-74730065D01*
X131088331Y-74732223D01*
X131088408Y-74733304D01*
X131093066Y-74745478D01*
X131097453Y-74757756D01*
X131098097Y-74758626D01*
X131098917Y-74760767D01*
X131170346Y-74903624D01*
X131178273Y-74916217D01*
X131179789Y-74919877D01*
X131183170Y-74923996D01*
X131186011Y-74928510D01*
X131189004Y-74931106D01*
X131198444Y-74942608D01*
X131341301Y-75085466D01*
X131364031Y-75104121D01*
X131369010Y-75106183D01*
X131373082Y-75109715D01*
X131399933Y-75121703D01*
X131614219Y-75193131D01*
X131628731Y-75196430D01*
X131632389Y-75197946D01*
X131637691Y-75198468D01*
X131642893Y-75199651D01*
X131646847Y-75199369D01*
X131661653Y-75200828D01*
X131804510Y-75200828D01*
X131819315Y-75199369D01*
X131823270Y-75199651D01*
X131828471Y-75198468D01*
X131833774Y-75197946D01*
X131837431Y-75196430D01*
X131851944Y-75193131D01*
X132066230Y-75121703D01*
X132093081Y-75109715D01*
X132097154Y-75106181D01*
X132102132Y-75104120D01*
X132124863Y-75085465D01*
X132196291Y-75014036D01*
X132214945Y-74991306D01*
X132237342Y-74937233D01*
X132237341Y-74878707D01*
X132214944Y-74824635D01*
X132173558Y-74783250D01*
X132119486Y-74760853D01*
X132060960Y-74760854D01*
X132006888Y-74783251D01*
X131984157Y-74801906D01*
X131937769Y-74848294D01*
X131780167Y-74900828D01*
X131685996Y-74900828D01*
X131528393Y-74848294D01*
X131427788Y-74747688D01*
X131374607Y-74641328D01*
X131311653Y-74389507D01*
X131311653Y-74212148D01*
X131374607Y-73960327D01*
X131427788Y-73853967D01*
X131528394Y-73753361D01*
X131685996Y-73700828D01*
X131780170Y-73700828D01*
X131937768Y-73753361D01*
X131984158Y-73799751D01*
X132006888Y-73818406D01*
X132060961Y-73840802D01*
X132119487Y-73840802D01*
X132173559Y-73818406D01*
X132214945Y-73777020D01*
X132237341Y-73722948D01*
X132237341Y-73664422D01*
X132214945Y-73610349D01*
X132196290Y-73587619D01*
X132159499Y-73550828D01*
X132583081Y-73550828D01*
X132583081Y-75050828D01*
X132585963Y-75080092D01*
X132608361Y-75134164D01*
X132649745Y-75175548D01*
X132703817Y-75197946D01*
X132733081Y-75200828D01*
X133447367Y-75200828D01*
X133476631Y-75197946D01*
X133530703Y-75175548D01*
X133572087Y-75134164D01*
X133594485Y-75080092D01*
X133594485Y-75021564D01*
X133572087Y-74967492D01*
X133530703Y-74926108D01*
X133476631Y-74903710D01*
X133447367Y-74900828D01*
X132883081Y-74900828D01*
X132883081Y-73550828D01*
X132880199Y-73521564D01*
X132857801Y-73467492D01*
X132816417Y-73426108D01*
X132762345Y-73403710D01*
X132703817Y-73403710D01*
X132649745Y-73426108D01*
X132608361Y-73467492D01*
X132585963Y-73521564D01*
X132583081Y-73550828D01*
X132159499Y-73550828D01*
X132124862Y-73516191D01*
X132102131Y-73497536D01*
X132097151Y-73495473D01*
X132093081Y-73491943D01*
X132066230Y-73479954D01*
X131851944Y-73408526D01*
X131837436Y-73405227D01*
X131833774Y-73403710D01*
X131828465Y-73403187D01*
X131823271Y-73402006D01*
X131819321Y-73402286D01*
X131804510Y-73400828D01*
X131661653Y-73400828D01*
X131646841Y-73402286D01*
X131642892Y-73402006D01*
X131637697Y-73403187D01*
X131632389Y-73403710D01*
X131628727Y-73405226D01*
X131614218Y-73408526D01*
X131399933Y-73479955D01*
X131373082Y-73491943D01*
X131369012Y-73495472D01*
X131364031Y-73497536D01*
X131341301Y-73516191D01*
X131198444Y-73659048D01*
X131189004Y-73670549D01*
X131186011Y-73673146D01*
X131183170Y-73677659D01*
X131179789Y-73681779D01*
X131178273Y-73685438D01*
X131170346Y-73698032D01*
X131098917Y-73840889D01*
X131098097Y-73843029D01*
X131097453Y-73843900D01*
X131093066Y-73856177D01*
X131088408Y-73868352D01*
X131088331Y-73869432D01*
X131087560Y-73871591D01*
X131016132Y-74157305D01*
X131015382Y-74162376D01*
X131014535Y-74164421D01*
X131013449Y-74175443D01*
X131011830Y-74186394D01*
X131012155Y-74188581D01*
X131011653Y-74193685D01*
X130348877Y-74193685D01*
X130344129Y-74191868D01*
X130343045Y-74191791D01*
X130340890Y-74191021D01*
X130071152Y-74123586D01*
X129964792Y-74070406D01*
X129927787Y-74033401D01*
X129883082Y-73943990D01*
X129883082Y-73871951D01*
X129927787Y-73782540D01*
X129964792Y-73745535D01*
X130054206Y-73700828D01*
X130351599Y-73700828D01*
X130542790Y-73764559D01*
X130571464Y-73771079D01*
X130629844Y-73766930D01*
X130682191Y-73740756D01*
X130720539Y-73696542D01*
X130739047Y-73641018D01*
X130734898Y-73582638D01*
X130708724Y-73530290D01*
X130664510Y-73491943D01*
X130637659Y-73479954D01*
X130423373Y-73408526D01*
X130408865Y-73405227D01*
X130405203Y-73403710D01*
X130399894Y-73403187D01*
X130394700Y-73402006D01*
X130390750Y-73402286D01*
X130375939Y-73400828D01*
X130018796Y-73400828D01*
X129989532Y-73403710D01*
X129984551Y-73405773D01*
X129979177Y-73406155D01*
X129951713Y-73416664D01*
X129808857Y-73488093D01*
X129796263Y-73496020D01*
X129792604Y-73497536D01*
X129788483Y-73500917D01*
X129783971Y-73503758D01*
X129781374Y-73506751D01*
X129769874Y-73516190D01*
X129698445Y-73587618D01*
X129689005Y-73599120D01*
X129686011Y-73601717D01*
X129683169Y-73606231D01*
X129679790Y-73610349D01*
X129678274Y-73614007D01*
X129670346Y-73626603D01*
X129598918Y-73769460D01*
X129588408Y-73796924D01*
X129588026Y-73802299D01*
X129585964Y-73807278D01*
X129583082Y-73836542D01*
X129416415Y-73836542D01*
X129416415Y-73234161D01*
X133761152Y-73234161D01*
X133761152Y-75367495D01*
G37*
D12*
G36*
X126864577Y-119578086D02*
G01*
X124158562Y-119578086D01*
X124158562Y-118367219D01*
X124269673Y-118367219D01*
X124269673Y-119367219D01*
X124271594Y-119386728D01*
X124286526Y-119422776D01*
X124314116Y-119450366D01*
X124350164Y-119465298D01*
X124389182Y-119465298D01*
X124425230Y-119450366D01*
X124452820Y-119422776D01*
X124467752Y-119386728D01*
X124469673Y-119367219D01*
X124469673Y-118367219D01*
X124745863Y-118367219D01*
X124745863Y-119367219D01*
X124747784Y-119386728D01*
X124762716Y-119422776D01*
X124790306Y-119450366D01*
X124826354Y-119465298D01*
X124865372Y-119465298D01*
X124901420Y-119450366D01*
X124929010Y-119422776D01*
X124943942Y-119386728D01*
X124945863Y-119367219D01*
X124945863Y-118743775D01*
X125330467Y-119416833D01*
X125333385Y-119420943D01*
X125334144Y-119422776D01*
X125336010Y-119424642D01*
X125341814Y-119432818D01*
X125352330Y-119440962D01*
X125361734Y-119450366D01*
X125367621Y-119452804D01*
X125372663Y-119456709D01*
X125385495Y-119460208D01*
X125397782Y-119465298D01*
X125404158Y-119465298D01*
X125410307Y-119466975D01*
X125423500Y-119465298D01*
X125436800Y-119465298D01*
X125442688Y-119462858D01*
X125449013Y-119462055D01*
X125460562Y-119455454D01*
X125472848Y-119450366D01*
X125477355Y-119445858D01*
X125482890Y-119442696D01*
X125491034Y-119432179D01*
X125500438Y-119422776D01*
X125502876Y-119416888D01*
X125506781Y-119411847D01*
X125510280Y-119399014D01*
X125515370Y-119386728D01*
X125516352Y-119376750D01*
X125517047Y-119374204D01*
X125516796Y-119372236D01*
X125517291Y-119367219D01*
X125517291Y-118966757D01*
X125795403Y-118966757D01*
X125795403Y-119005775D01*
X125810335Y-119041823D01*
X125837925Y-119069413D01*
X125873973Y-119084345D01*
X125893482Y-119086266D01*
X126655387Y-119086266D01*
X126674896Y-119084345D01*
X126710944Y-119069413D01*
X126738534Y-119041823D01*
X126753466Y-119005775D01*
X126753466Y-118966757D01*
X126738534Y-118930709D01*
X126710944Y-118903119D01*
X126674896Y-118888187D01*
X126655387Y-118886266D01*
X125893482Y-118886266D01*
X125873973Y-118888187D01*
X125837925Y-118903119D01*
X125810335Y-118930709D01*
X125795403Y-118966757D01*
X125517291Y-118966757D01*
X125517291Y-118367219D01*
X125515370Y-118347710D01*
X125500438Y-118311662D01*
X125472848Y-118284072D01*
X125436800Y-118269140D01*
X125397782Y-118269140D01*
X125361734Y-118284072D01*
X125334144Y-118311662D01*
X125319212Y-118347710D01*
X125317291Y-118367219D01*
X125317291Y-118990662D01*
X124932687Y-118317605D01*
X124929768Y-118313494D01*
X124929010Y-118311662D01*
X124927143Y-118309795D01*
X124921340Y-118301620D01*
X124910825Y-118293477D01*
X124901420Y-118284072D01*
X124895529Y-118281632D01*
X124890491Y-118277730D01*
X124877662Y-118274231D01*
X124865372Y-118269140D01*
X124858997Y-118269140D01*
X124852848Y-118267463D01*
X124839655Y-118269140D01*
X124826354Y-118269140D01*
X124820465Y-118271579D01*
X124814141Y-118272383D01*
X124802591Y-118278983D01*
X124790306Y-118284072D01*
X124785798Y-118288579D01*
X124780264Y-118291742D01*
X124772121Y-118302256D01*
X124762716Y-118311662D01*
X124760276Y-118317552D01*
X124756374Y-118322591D01*
X124752875Y-118335419D01*
X124747784Y-118347710D01*
X124746801Y-118357687D01*
X124746107Y-118360234D01*
X124746357Y-118362201D01*
X124745863Y-118367219D01*
X124469673Y-118367219D01*
X124467752Y-118347710D01*
X124452820Y-118311662D01*
X124425230Y-118284072D01*
X124389182Y-118269140D01*
X124350164Y-118269140D01*
X124314116Y-118284072D01*
X124286526Y-118311662D01*
X124271594Y-118347710D01*
X124269673Y-118367219D01*
X124158562Y-118367219D01*
X124158562Y-118156352D01*
X126864577Y-118156352D01*
X126864577Y-119578086D01*
G37*
D11*
G36*
X132328338Y-62730167D02*
G01*
X132275804Y-62887769D01*
X132246626Y-62916947D01*
X132157214Y-62961653D01*
X132013748Y-62961653D01*
X131924335Y-62916947D01*
X131887331Y-62879943D01*
X131842624Y-62790528D01*
X131842624Y-62404510D01*
X132328338Y-62404510D01*
X132328338Y-62730167D01*
G37*
G36*
X133042624Y-62719100D02*
G01*
X132997917Y-62808514D01*
X132960913Y-62845517D01*
X132871500Y-62890225D01*
X132799463Y-62890225D01*
X132710049Y-62845518D01*
X132673045Y-62808514D01*
X132628338Y-62719100D01*
X132628338Y-62404510D01*
X133042624Y-62404510D01*
X133042624Y-62719100D01*
G37*
G36*
X133509291Y-69428321D02*
G01*
X131375957Y-69428321D01*
X131375957Y-68183082D01*
X131542624Y-68183082D01*
X131542624Y-69111654D01*
X131545506Y-69140918D01*
X131567904Y-69194990D01*
X131609288Y-69236374D01*
X131663360Y-69258772D01*
X131721888Y-69258772D01*
X131775960Y-69236374D01*
X131817344Y-69194990D01*
X131839742Y-69140918D01*
X131842624Y-69111654D01*
X131842624Y-68545214D01*
X132443701Y-69146291D01*
X132466431Y-69164946D01*
X132471412Y-69167009D01*
X132475482Y-69170539D01*
X132502333Y-69182527D01*
X132716618Y-69253956D01*
X132731127Y-69257255D01*
X132734789Y-69258772D01*
X132740097Y-69259294D01*
X132745292Y-69260476D01*
X132749241Y-69260195D01*
X132764053Y-69261654D01*
X132906910Y-69261654D01*
X132936174Y-69258772D01*
X132941154Y-69256708D01*
X132946529Y-69256327D01*
X132973992Y-69245818D01*
X133116849Y-69174389D01*
X133129442Y-69166461D01*
X133133102Y-69164946D01*
X133137221Y-69161564D01*
X133141735Y-69158724D01*
X133144331Y-69155730D01*
X133155833Y-69146291D01*
X133227261Y-69074863D01*
X133236701Y-69063360D01*
X133239694Y-69060765D01*
X133242532Y-69056255D01*
X133245916Y-69052133D01*
X133247432Y-69048470D01*
X133255359Y-69035879D01*
X133326788Y-68893021D01*
X133337298Y-68865558D01*
X133337680Y-68860180D01*
X133339742Y-68855203D01*
X133342624Y-68825939D01*
X133342624Y-68468797D01*
X133339742Y-68439533D01*
X133337680Y-68434555D01*
X133337298Y-68429178D01*
X133326788Y-68401715D01*
X133255359Y-68258857D01*
X133247432Y-68246265D01*
X133245916Y-68242603D01*
X133242532Y-68238480D01*
X133239694Y-68233971D01*
X133236701Y-68231375D01*
X133227261Y-68219873D01*
X133155833Y-68148445D01*
X133133102Y-68129790D01*
X133079030Y-68107393D01*
X133020504Y-68107393D01*
X132966432Y-68129790D01*
X132925046Y-68171176D01*
X132902649Y-68225248D01*
X132902649Y-68283774D01*
X132925046Y-68337846D01*
X132943701Y-68360577D01*
X132997917Y-68414793D01*
X133042624Y-68504207D01*
X133042624Y-68790529D01*
X132997917Y-68879943D01*
X132960913Y-68916946D01*
X132871500Y-68961654D01*
X132788396Y-68961654D01*
X132630794Y-68909120D01*
X131798690Y-68077016D01*
X131775959Y-68058361D01*
X131744285Y-68045241D01*
X131721888Y-68035964D01*
X131663360Y-68035964D01*
X131640963Y-68045241D01*
X131609289Y-68058361D01*
X131567903Y-68099747D01*
X131564736Y-68107393D01*
X131545506Y-68153818D01*
X131542624Y-68183082D01*
X131375957Y-68183082D01*
X131375957Y-67691245D01*
X131542846Y-67691245D01*
X131557371Y-67747942D01*
X131592488Y-67794764D01*
X131642850Y-67824583D01*
X131700787Y-67832860D01*
X131757484Y-67818335D01*
X131782624Y-67803082D01*
X132535691Y-67238281D01*
X133086558Y-67789148D01*
X133109288Y-67807803D01*
X133163361Y-67830200D01*
X133221887Y-67830200D01*
X133275959Y-67807803D01*
X133317345Y-67766417D01*
X133339742Y-67712345D01*
X133339742Y-67653819D01*
X133317345Y-67599746D01*
X133298690Y-67577016D01*
X132697613Y-66975939D01*
X133192624Y-66975939D01*
X133221888Y-66973057D01*
X133275960Y-66950659D01*
X133317344Y-66909275D01*
X133339742Y-66855203D01*
X133339742Y-66796675D01*
X133317344Y-66742603D01*
X133275960Y-66701219D01*
X133221888Y-66678821D01*
X133192624Y-66675939D01*
X131692624Y-66675939D01*
X131663360Y-66678821D01*
X131609288Y-66701219D01*
X131567904Y-66742603D01*
X131545506Y-66796675D01*
X131545506Y-66855203D01*
X131567904Y-66909275D01*
X131609288Y-66950659D01*
X131663360Y-66973057D01*
X131692624Y-66975939D01*
X132273349Y-66975939D01*
X132321405Y-67023995D01*
X131602624Y-67563082D01*
X131580942Y-67582946D01*
X131551123Y-67633308D01*
X131542846Y-67691245D01*
X131375957Y-67691245D01*
X131375957Y-65754511D01*
X131542624Y-65754511D01*
X131542624Y-65897368D01*
X131544082Y-65912179D01*
X131543802Y-65916129D01*
X131544983Y-65921323D01*
X131545506Y-65926632D01*
X131547023Y-65930294D01*
X131550322Y-65944802D01*
X131621750Y-66159088D01*
X131633739Y-66185939D01*
X131637269Y-66190009D01*
X131639332Y-66194989D01*
X131657987Y-66217720D01*
X131729415Y-66289148D01*
X131752145Y-66307803D01*
X131806218Y-66330199D01*
X131864744Y-66330199D01*
X131918816Y-66307803D01*
X131960202Y-66266417D01*
X131982598Y-66212345D01*
X131982598Y-66153819D01*
X131960202Y-66099746D01*
X131941547Y-66077016D01*
X131895157Y-66030626D01*
X131842624Y-65873027D01*
X131842624Y-65778851D01*
X131895157Y-65621252D01*
X131995764Y-65520645D01*
X132102123Y-65467466D01*
X132353945Y-65404511D01*
X132531303Y-65404511D01*
X132783124Y-65467465D01*
X132889484Y-65520646D01*
X132990090Y-65621252D01*
X133042624Y-65778853D01*
X133042624Y-65873025D01*
X132990090Y-66030626D01*
X132943701Y-66077016D01*
X132925046Y-66099747D01*
X132902649Y-66153819D01*
X132902649Y-66212345D01*
X132925046Y-66266417D01*
X132966432Y-66307803D01*
X133020504Y-66330200D01*
X133079030Y-66330200D01*
X133133102Y-66307803D01*
X133155833Y-66289148D01*
X133227261Y-66217720D01*
X133245916Y-66194990D01*
X133247979Y-66190009D01*
X133251509Y-66185939D01*
X133263497Y-66159088D01*
X133334926Y-65944803D01*
X133338225Y-65930293D01*
X133339742Y-65926632D01*
X133340264Y-65921323D01*
X133341446Y-65916129D01*
X133341165Y-65912179D01*
X133342624Y-65897368D01*
X133342624Y-65754511D01*
X133341165Y-65739699D01*
X133341446Y-65735750D01*
X133340264Y-65730555D01*
X133339742Y-65725247D01*
X133338225Y-65721585D01*
X133334926Y-65707076D01*
X133263497Y-65492791D01*
X133251509Y-65465940D01*
X133247979Y-65461870D01*
X133245916Y-65456889D01*
X133227261Y-65434159D01*
X133084404Y-65291302D01*
X133072902Y-65281862D01*
X133070306Y-65278869D01*
X133065792Y-65276028D01*
X133061673Y-65272647D01*
X133058013Y-65271131D01*
X133045420Y-65263204D01*
X132902563Y-65191775D01*
X132900422Y-65190955D01*
X132899552Y-65190311D01*
X132887274Y-65185924D01*
X132875100Y-65181266D01*
X132874019Y-65181189D01*
X132871861Y-65180418D01*
X132586147Y-65108990D01*
X132581075Y-65108240D01*
X132579031Y-65107393D01*
X132568008Y-65106307D01*
X132557058Y-65104688D01*
X132554870Y-65105013D01*
X132549767Y-65104511D01*
X132335481Y-65104511D01*
X132330377Y-65105013D01*
X132328190Y-65104688D01*
X132317239Y-65106307D01*
X132306217Y-65107393D01*
X132304172Y-65108240D01*
X132299101Y-65108990D01*
X132013387Y-65180418D01*
X132011228Y-65181189D01*
X132010148Y-65181266D01*
X131997967Y-65185926D01*
X131985696Y-65190311D01*
X131984826Y-65190955D01*
X131982684Y-65191775D01*
X131839828Y-65263204D01*
X131827236Y-65271130D01*
X131823574Y-65272647D01*
X131819451Y-65276030D01*
X131814942Y-65278869D01*
X131812346Y-65281861D01*
X131800844Y-65291302D01*
X131657987Y-65434159D01*
X131639332Y-65456890D01*
X131637269Y-65461869D01*
X131633739Y-65465940D01*
X131621750Y-65492791D01*
X131550322Y-65707077D01*
X131547023Y-65721584D01*
X131545506Y-65725247D01*
X131544983Y-65730555D01*
X131543802Y-65735750D01*
X131544082Y-65739699D01*
X131542624Y-65754511D01*
X131375957Y-65754511D01*
X131375957Y-64040225D01*
X131542624Y-64040225D01*
X131542624Y-64325939D01*
X131545506Y-64355203D01*
X131547569Y-64360183D01*
X131547951Y-64365558D01*
X131558460Y-64393021D01*
X131629889Y-64535878D01*
X131637817Y-64548473D01*
X131639332Y-64552130D01*
X131642711Y-64556247D01*
X131645554Y-64560764D01*
X131648548Y-64563361D01*
X131657986Y-64574861D01*
X131729414Y-64646290D01*
X131740919Y-64655732D01*
X131743514Y-64658724D01*
X131748024Y-64661563D01*
X131752145Y-64664945D01*
X131755804Y-64666460D01*
X131768399Y-64674389D01*
X131911257Y-64745817D01*
X131938720Y-64756327D01*
X131944095Y-64756708D01*
X131949074Y-64758771D01*
X131978338Y-64761653D01*
X133192624Y-64761653D01*
X133221888Y-64758771D01*
X133275960Y-64736373D01*
X133317344Y-64694989D01*
X133339742Y-64640917D01*
X133339742Y-64582389D01*
X133317344Y-64528317D01*
X133275960Y-64486933D01*
X133221888Y-64464535D01*
X133192624Y-64461653D01*
X132013748Y-64461653D01*
X131924335Y-64416947D01*
X131887331Y-64379943D01*
X131842624Y-64290528D01*
X131842624Y-64075635D01*
X131887331Y-63986220D01*
X131924335Y-63949216D01*
X132013748Y-63904510D01*
X133192624Y-63904510D01*
X133221888Y-63901628D01*
X133275960Y-63879230D01*
X133317344Y-63837846D01*
X133339742Y-63783774D01*
X133339742Y-63725246D01*
X133317344Y-63671174D01*
X133275960Y-63629790D01*
X133221888Y-63607392D01*
X133192624Y-63604510D01*
X131978338Y-63604510D01*
X131949074Y-63607392D01*
X131944093Y-63609455D01*
X131938719Y-63609837D01*
X131911255Y-63620346D01*
X131768399Y-63691775D01*
X131755802Y-63699703D01*
X131752145Y-63701219D01*
X131748027Y-63704598D01*
X131743513Y-63707440D01*
X131740915Y-63710434D01*
X131729414Y-63719874D01*
X131657986Y-63791303D01*
X131648548Y-63802802D01*
X131645554Y-63805400D01*
X131642711Y-63809916D01*
X131639332Y-63814034D01*
X131637817Y-63817690D01*
X131629889Y-63830286D01*
X131558460Y-63973143D01*
X131547951Y-64000606D01*
X131547569Y-64005980D01*
X131545506Y-64010961D01*
X131542624Y-64040225D01*
X131375957Y-64040225D01*
X131375957Y-62254510D01*
X131542624Y-62254510D01*
X131542624Y-62825939D01*
X131545506Y-62855203D01*
X131547569Y-62860183D01*
X131547951Y-62865558D01*
X131558460Y-62893021D01*
X131629889Y-63035878D01*
X131637817Y-63048473D01*
X131639332Y-63052130D01*
X131642711Y-63056247D01*
X131645554Y-63060764D01*
X131648548Y-63063361D01*
X131657986Y-63074861D01*
X131729414Y-63146290D01*
X131740919Y-63155732D01*
X131743514Y-63158724D01*
X131748024Y-63161563D01*
X131752145Y-63164945D01*
X131755804Y-63166460D01*
X131768399Y-63174389D01*
X131911257Y-63245817D01*
X131938720Y-63256327D01*
X131944095Y-63256708D01*
X131949074Y-63258771D01*
X131978338Y-63261653D01*
X132192624Y-63261653D01*
X132221888Y-63258771D01*
X132226866Y-63256708D01*
X132232242Y-63256327D01*
X132259706Y-63245817D01*
X132402563Y-63174389D01*
X132415156Y-63166461D01*
X132418816Y-63164946D01*
X132422935Y-63161564D01*
X132427449Y-63158724D01*
X132430045Y-63155730D01*
X132441547Y-63146291D01*
X132512976Y-63074862D01*
X132513946Y-63073679D01*
X132515129Y-63074862D01*
X132526631Y-63084302D01*
X132529227Y-63087295D01*
X132533736Y-63090133D01*
X132537859Y-63093517D01*
X132541521Y-63095033D01*
X132554113Y-63102960D01*
X132696971Y-63174389D01*
X132724434Y-63184899D01*
X132729811Y-63185281D01*
X132734789Y-63187343D01*
X132764053Y-63190225D01*
X132906910Y-63190225D01*
X132936174Y-63187343D01*
X132941154Y-63185279D01*
X132946529Y-63184898D01*
X132973992Y-63174389D01*
X133116849Y-63102960D01*
X133129442Y-63095032D01*
X133133102Y-63093517D01*
X133137221Y-63090135D01*
X133141735Y-63087295D01*
X133144331Y-63084301D01*
X133155833Y-63074862D01*
X133227261Y-63003434D01*
X133236701Y-62991931D01*
X133239694Y-62989336D01*
X133242532Y-62984826D01*
X133245916Y-62980704D01*
X133247432Y-62977041D01*
X133255359Y-62964450D01*
X133326788Y-62821592D01*
X133337298Y-62794129D01*
X133337680Y-62788751D01*
X133339742Y-62783774D01*
X133342624Y-62754510D01*
X133342624Y-62254510D01*
X133339742Y-62225246D01*
X133317344Y-62171174D01*
X133275960Y-62129790D01*
X133221888Y-62107392D01*
X133192624Y-62104510D01*
X131692624Y-62104510D01*
X131663360Y-62107392D01*
X131609288Y-62129790D01*
X131567904Y-62171174D01*
X131545506Y-62225246D01*
X131542624Y-62254510D01*
X131375957Y-62254510D01*
X131375957Y-61937843D01*
X133509291Y-61937843D01*
X133509291Y-69428321D01*
G37*
D12*
G36*
X127341437Y-58843647D02*
G01*
X124635423Y-58843647D01*
X124635423Y-57994224D01*
X124746534Y-57994224D01*
X124746534Y-58033242D01*
X124761466Y-58069290D01*
X124789056Y-58096880D01*
X124825104Y-58111812D01*
X124844613Y-58113733D01*
X125125565Y-58113733D01*
X125125565Y-58394685D01*
X125127486Y-58414194D01*
X125142418Y-58450242D01*
X125170008Y-58477832D01*
X125206056Y-58492764D01*
X125245074Y-58492764D01*
X125281122Y-58477832D01*
X125308712Y-58450242D01*
X125323644Y-58414194D01*
X125325565Y-58394685D01*
X125325565Y-58113733D01*
X125606517Y-58113733D01*
X125626026Y-58111812D01*
X125662074Y-58096880D01*
X125689664Y-58069290D01*
X125704596Y-58033242D01*
X125704596Y-57994224D01*
X125689664Y-57958176D01*
X125662074Y-57930586D01*
X125626026Y-57915654D01*
X125606517Y-57913733D01*
X125325565Y-57913733D01*
X125325565Y-57632780D01*
X125982708Y-57632780D01*
X125982708Y-58632780D01*
X125984629Y-58652289D01*
X125999561Y-58688337D01*
X126027151Y-58715927D01*
X126063199Y-58730859D01*
X126102217Y-58730859D01*
X126138265Y-58715927D01*
X126165855Y-58688337D01*
X126180787Y-58652289D01*
X126182708Y-58632780D01*
X126182708Y-58009336D01*
X126567312Y-58682394D01*
X126570230Y-58686504D01*
X126570989Y-58688337D01*
X126572855Y-58690203D01*
X126578659Y-58698379D01*
X126589175Y-58706523D01*
X126598579Y-58715927D01*
X126604466Y-58718365D01*
X126609508Y-58722270D01*
X126622340Y-58725769D01*
X126634627Y-58730859D01*
X126641003Y-58730859D01*
X126647152Y-58732536D01*
X126660345Y-58730859D01*
X126673645Y-58730859D01*
X126679533Y-58728419D01*
X126685858Y-58727616D01*
X126697407Y-58721015D01*
X126709693Y-58715927D01*
X126714200Y-58711419D01*
X126719735Y-58708257D01*
X126727879Y-58697740D01*
X126737283Y-58688337D01*
X126739721Y-58682449D01*
X126743626Y-58677408D01*
X126747125Y-58664575D01*
X126752215Y-58652289D01*
X126753197Y-58642311D01*
X126753892Y-58639765D01*
X126753641Y-58637797D01*
X126754136Y-58632780D01*
X126754136Y-57632780D01*
X127030326Y-57632780D01*
X127030326Y-58632780D01*
X127032247Y-58652289D01*
X127047179Y-58688337D01*
X127074769Y-58715927D01*
X127110817Y-58730859D01*
X127149835Y-58730859D01*
X127185883Y-58715927D01*
X127213473Y-58688337D01*
X127228405Y-58652289D01*
X127230326Y-58632780D01*
X127230326Y-57632780D01*
X127228405Y-57613271D01*
X127213473Y-57577223D01*
X127185883Y-57549633D01*
X127149835Y-57534701D01*
X127110817Y-57534701D01*
X127074769Y-57549633D01*
X127047179Y-57577223D01*
X127032247Y-57613271D01*
X127030326Y-57632780D01*
X126754136Y-57632780D01*
X126752215Y-57613271D01*
X126737283Y-57577223D01*
X126709693Y-57549633D01*
X126673645Y-57534701D01*
X126634627Y-57534701D01*
X126598579Y-57549633D01*
X126570989Y-57577223D01*
X126556057Y-57613271D01*
X126554136Y-57632780D01*
X126554136Y-58256223D01*
X126169532Y-57583166D01*
X126166613Y-57579055D01*
X126165855Y-57577223D01*
X126163988Y-57575356D01*
X126158185Y-57567181D01*
X126147670Y-57559038D01*
X126138265Y-57549633D01*
X126132374Y-57547193D01*
X126127336Y-57543291D01*
X126114507Y-57539792D01*
X126102217Y-57534701D01*
X126095842Y-57534701D01*
X126089693Y-57533024D01*
X126076500Y-57534701D01*
X126063199Y-57534701D01*
X126057310Y-57537140D01*
X126050986Y-57537944D01*
X126039436Y-57544544D01*
X126027151Y-57549633D01*
X126022643Y-57554140D01*
X126017109Y-57557303D01*
X126008966Y-57567817D01*
X125999561Y-57577223D01*
X125997121Y-57583113D01*
X125993219Y-57588152D01*
X125989720Y-57600980D01*
X125984629Y-57613271D01*
X125983646Y-57623248D01*
X125982952Y-57625795D01*
X125983202Y-57627762D01*
X125982708Y-57632780D01*
X125325565Y-57632780D01*
X125323644Y-57613271D01*
X125308712Y-57577223D01*
X125281122Y-57549633D01*
X125245074Y-57534701D01*
X125206056Y-57534701D01*
X125170008Y-57549633D01*
X125142418Y-57577223D01*
X125127486Y-57613271D01*
X125125565Y-57632780D01*
X125125565Y-57913733D01*
X124844613Y-57913733D01*
X124825104Y-57915654D01*
X124789056Y-57930586D01*
X124761466Y-57958176D01*
X124746534Y-57994224D01*
X124635423Y-57994224D01*
X124635423Y-57421913D01*
X127341437Y-57421913D01*
X127341437Y-58843647D01*
G37*
D11*
G36*
X124119567Y-80367495D02*
G01*
X121417115Y-80367495D01*
X121417115Y-79279594D01*
X121583782Y-79279594D01*
X121585964Y-79286825D01*
X121585964Y-79294378D01*
X121594355Y-79314637D01*
X121600689Y-79335626D01*
X121605470Y-79341470D01*
X121608362Y-79348450D01*
X121623866Y-79363953D01*
X121637750Y-79380923D01*
X121644406Y-79384494D01*
X121649748Y-79389835D01*
X121670002Y-79398224D01*
X121689325Y-79408590D01*
X121696842Y-79409341D01*
X121703820Y-79412232D01*
X121725743Y-79412232D01*
X121747562Y-79414414D01*
X121754793Y-79412232D01*
X121762346Y-79412232D01*
X121782605Y-79403840D01*
X121803594Y-79397507D01*
X121809438Y-79392725D01*
X121816418Y-79389834D01*
X121839149Y-79371179D01*
X121893365Y-79316962D01*
X121982777Y-79272257D01*
X122269101Y-79272257D01*
X122358514Y-79316963D01*
X122395517Y-79353967D01*
X122440225Y-79443381D01*
X122440225Y-79729703D01*
X122395517Y-79819117D01*
X122358514Y-79856121D01*
X122269101Y-79900828D01*
X121982777Y-79900828D01*
X121893365Y-79856122D01*
X121839149Y-79801906D01*
X121816418Y-79783251D01*
X121762346Y-79760853D01*
X121703820Y-79760853D01*
X121649748Y-79783250D01*
X121608362Y-79824635D01*
X121585964Y-79878707D01*
X121585964Y-79937233D01*
X121608361Y-79991305D01*
X121627015Y-80014036D01*
X121698443Y-80085465D01*
X121709945Y-80094904D01*
X121712543Y-80097900D01*
X121717057Y-80100741D01*
X121721174Y-80104120D01*
X121724832Y-80105635D01*
X121737429Y-80113564D01*
X121880287Y-80184993D01*
X121907750Y-80195502D01*
X121913125Y-80195883D01*
X121918104Y-80197946D01*
X121947368Y-80200828D01*
X122304510Y-80200828D01*
X122333774Y-80197946D01*
X122338752Y-80195883D01*
X122344128Y-80195502D01*
X122371591Y-80184992D01*
X122514450Y-80113564D01*
X122527044Y-80105635D01*
X122530704Y-80104120D01*
X122534824Y-80100738D01*
X122539335Y-80097899D01*
X122541929Y-80094907D01*
X122553435Y-80085465D01*
X122624863Y-80014036D01*
X122634301Y-80002535D01*
X122637295Y-79999939D01*
X122640135Y-79995426D01*
X122643517Y-79991306D01*
X122645032Y-79987646D01*
X122652960Y-79975053D01*
X122724389Y-79832197D01*
X122734898Y-79804733D01*
X122735279Y-79799358D01*
X122737343Y-79794378D01*
X122740225Y-79765114D01*
X122740225Y-79407971D01*
X122737343Y-79378707D01*
X122735279Y-79373726D01*
X122734898Y-79368352D01*
X122724389Y-79340888D01*
X122652960Y-79198032D01*
X122645032Y-79185438D01*
X122643517Y-79181779D01*
X122640135Y-79177658D01*
X122637295Y-79173146D01*
X122634301Y-79170549D01*
X122624863Y-79159049D01*
X122553435Y-79087620D01*
X122541929Y-79078177D01*
X122539335Y-79075186D01*
X122535466Y-79072750D01*
X122941834Y-79072750D01*
X122948963Y-79101278D01*
X123306106Y-80101278D01*
X123318662Y-80127868D01*
X123323715Y-80133450D01*
X123326938Y-80140253D01*
X123343210Y-80154984D01*
X123357942Y-80171257D01*
X123364744Y-80174479D01*
X123370327Y-80179533D01*
X123391001Y-80186916D01*
X123410834Y-80196311D01*
X123418352Y-80196684D01*
X123425445Y-80199218D01*
X123447367Y-80198127D01*
X123469289Y-80199218D01*
X123476381Y-80196684D01*
X123483900Y-80196311D01*
X123503732Y-80186916D01*
X123524407Y-80179533D01*
X123529989Y-80174479D01*
X123536792Y-80171257D01*
X123551523Y-80154984D01*
X123567796Y-80140253D01*
X123571018Y-80133450D01*
X123576072Y-80127868D01*
X123588628Y-80101278D01*
X123945771Y-79101279D01*
X123952900Y-79072750D01*
X123949993Y-79014295D01*
X123924939Y-78961403D01*
X123881550Y-78922123D01*
X123826432Y-78902438D01*
X123767977Y-78905345D01*
X123715085Y-78930399D01*
X123675805Y-78973788D01*
X123663249Y-79000378D01*
X123447367Y-79604847D01*
X123231485Y-79000378D01*
X123218929Y-78973788D01*
X123179649Y-78930399D01*
X123126757Y-78905345D01*
X123068302Y-78902438D01*
X123013184Y-78922123D01*
X122969795Y-78961403D01*
X122944741Y-79014295D01*
X122941834Y-79072750D01*
X122535466Y-79072750D01*
X122534824Y-79072346D01*
X122530704Y-79068965D01*
X122527044Y-79067449D01*
X122514450Y-79059521D01*
X122371591Y-78988093D01*
X122344128Y-78977583D01*
X122338752Y-78977201D01*
X122333774Y-78975139D01*
X122304510Y-78972257D01*
X121947368Y-78972257D01*
X121918104Y-78975139D01*
X121913125Y-78977201D01*
X121912617Y-78977237D01*
X121940259Y-78700828D01*
X122518796Y-78700828D01*
X122548060Y-78697946D01*
X122602132Y-78675548D01*
X122643516Y-78634164D01*
X122665914Y-78580092D01*
X122665914Y-78521564D01*
X122643516Y-78467492D01*
X122602132Y-78426108D01*
X122548060Y-78403710D01*
X122518796Y-78400828D01*
X121804510Y-78400828D01*
X121793683Y-78401894D01*
X121790030Y-78401529D01*
X121786462Y-78402605D01*
X121775246Y-78403710D01*
X121754983Y-78412103D01*
X121733998Y-78418435D01*
X121728153Y-78423216D01*
X121721174Y-78426108D01*
X121705668Y-78441613D01*
X121688701Y-78455496D01*
X121685130Y-78462151D01*
X121679790Y-78467492D01*
X121671398Y-78487749D01*
X121661034Y-78507071D01*
X121658819Y-78518118D01*
X121657392Y-78521564D01*
X121657392Y-78525238D01*
X121655254Y-78535903D01*
X121583826Y-79250189D01*
X121583782Y-79279594D01*
X121417115Y-79279594D01*
X121417115Y-78234161D01*
X124119567Y-78234161D01*
X124119567Y-80367495D01*
G37*
G36*
X125478320Y-77867495D02*
G01*
X121347868Y-77867495D01*
X121347868Y-76021564D01*
X121514535Y-76021564D01*
X121514535Y-76080092D01*
X121536933Y-76134164D01*
X121578317Y-76175548D01*
X121632389Y-76197946D01*
X121661653Y-76200828D01*
X122259660Y-76200828D01*
X121977338Y-76523481D01*
X121968294Y-76536131D01*
X121965505Y-76538921D01*
X121964408Y-76541566D01*
X121960237Y-76547403D01*
X121952430Y-76570484D01*
X121943107Y-76592993D01*
X121943107Y-76598052D01*
X121941486Y-76602845D01*
X121943107Y-76627154D01*
X121943107Y-76651521D01*
X121945043Y-76656196D01*
X121945380Y-76661241D01*
X121956178Y-76683076D01*
X121965505Y-76705593D01*
X121969081Y-76709169D01*
X121971324Y-76713704D01*
X121989659Y-76729747D01*
X122006889Y-76746977D01*
X122011563Y-76748913D01*
X122015371Y-76752245D01*
X122038452Y-76760051D01*
X122060961Y-76769375D01*
X122068098Y-76770077D01*
X122070813Y-76770996D01*
X122074752Y-76770733D01*
X122090225Y-76772257D01*
X122269101Y-76772257D01*
X122358514Y-76816963D01*
X122395517Y-76853967D01*
X122440225Y-76943381D01*
X122440225Y-77229703D01*
X122395517Y-77319117D01*
X122358514Y-77356121D01*
X122269101Y-77400828D01*
X121911349Y-77400828D01*
X121821935Y-77356121D01*
X121767719Y-77301905D01*
X121744988Y-77283250D01*
X121690916Y-77260853D01*
X121632390Y-77260853D01*
X121578318Y-77283250D01*
X121536932Y-77324636D01*
X121514535Y-77378708D01*
X121514535Y-77437234D01*
X121536932Y-77491306D01*
X121555587Y-77514037D01*
X121627016Y-77585466D01*
X121638520Y-77594907D01*
X121641115Y-77597899D01*
X121645624Y-77600737D01*
X121649747Y-77604121D01*
X121653408Y-77605637D01*
X121666000Y-77613564D01*
X121808858Y-77684992D01*
X121836321Y-77695502D01*
X121841696Y-77695883D01*
X121846675Y-77697946D01*
X121875939Y-77700828D01*
X122304510Y-77700828D01*
X122333774Y-77697946D01*
X122338752Y-77695883D01*
X122344128Y-77695502D01*
X122371591Y-77684992D01*
X122514450Y-77613564D01*
X122527044Y-77605635D01*
X122530704Y-77604120D01*
X122534824Y-77600738D01*
X122539335Y-77597899D01*
X122541929Y-77594907D01*
X122553435Y-77585465D01*
X122624863Y-77514036D01*
X122634301Y-77502535D01*
X122637295Y-77499939D01*
X122640135Y-77495426D01*
X122643517Y-77491306D01*
X122645032Y-77487646D01*
X122652960Y-77475053D01*
X122724389Y-77332197D01*
X122734898Y-77304733D01*
X122735279Y-77299358D01*
X122737343Y-77294378D01*
X122740225Y-77265114D01*
X122740225Y-76907971D01*
X122737343Y-76878707D01*
X122735279Y-76873726D01*
X122734898Y-76868352D01*
X122724389Y-76840888D01*
X122652960Y-76698032D01*
X122645032Y-76685438D01*
X122643517Y-76681779D01*
X122640135Y-76677658D01*
X122637295Y-76673146D01*
X122634301Y-76670549D01*
X122624863Y-76659049D01*
X122553435Y-76587620D01*
X122541929Y-76578177D01*
X122539335Y-76575186D01*
X122535466Y-76572750D01*
X122941834Y-76572750D01*
X122948963Y-76601278D01*
X123306106Y-77601278D01*
X123318662Y-77627868D01*
X123323715Y-77633450D01*
X123326938Y-77640253D01*
X123343210Y-77654984D01*
X123357942Y-77671257D01*
X123364744Y-77674479D01*
X123370327Y-77679533D01*
X123391001Y-77686916D01*
X123410834Y-77696311D01*
X123418352Y-77696684D01*
X123425445Y-77699218D01*
X123447367Y-77698127D01*
X123469289Y-77699218D01*
X123476381Y-77696684D01*
X123483900Y-77696311D01*
X123503732Y-77686916D01*
X123524407Y-77679533D01*
X123529989Y-77674479D01*
X123536792Y-77671257D01*
X123551523Y-77654984D01*
X123567796Y-77640253D01*
X123571018Y-77633450D01*
X123576072Y-77627868D01*
X123588628Y-77601278D01*
X123945771Y-76601279D01*
X123952900Y-76572750D01*
X123949993Y-76514295D01*
X123924939Y-76461403D01*
X123881550Y-76422123D01*
X123826432Y-76402438D01*
X123767977Y-76405345D01*
X123715085Y-76430399D01*
X123675805Y-76473788D01*
X123663249Y-76500378D01*
X123447367Y-77104847D01*
X123231485Y-76500378D01*
X123218929Y-76473788D01*
X123179649Y-76430399D01*
X123126757Y-76405345D01*
X123068302Y-76402438D01*
X123013184Y-76422123D01*
X122969795Y-76461403D01*
X122944741Y-76514295D01*
X122941834Y-76572750D01*
X122535466Y-76572750D01*
X122534824Y-76572346D01*
X122530704Y-76568965D01*
X122527044Y-76567449D01*
X122514450Y-76559521D01*
X122396177Y-76500386D01*
X122703111Y-76149604D01*
X122712154Y-76136954D01*
X122714945Y-76134164D01*
X122716040Y-76131519D01*
X122720213Y-76125683D01*
X122728018Y-76102603D01*
X122737343Y-76080092D01*
X122737343Y-76075030D01*
X122738963Y-76070240D01*
X122737343Y-76045939D01*
X122737343Y-76021564D01*
X124085963Y-76021564D01*
X124085963Y-76080092D01*
X124108361Y-76134164D01*
X124149745Y-76175548D01*
X124203817Y-76197946D01*
X124233081Y-76200828D01*
X124831088Y-76200828D01*
X124548766Y-76523481D01*
X124539722Y-76536131D01*
X124536933Y-76538921D01*
X124535836Y-76541566D01*
X124531665Y-76547403D01*
X124523858Y-76570484D01*
X124514535Y-76592993D01*
X124514535Y-76598052D01*
X124512914Y-76602845D01*
X124514535Y-76627154D01*
X124514535Y-76651521D01*
X124516471Y-76656196D01*
X124516808Y-76661241D01*
X124527606Y-76683076D01*
X124536933Y-76705593D01*
X124540509Y-76709169D01*
X124542752Y-76713704D01*
X124561087Y-76729747D01*
X124578317Y-76746977D01*
X124582991Y-76748913D01*
X124586799Y-76752245D01*
X124609880Y-76760051D01*
X124632389Y-76769375D01*
X124639526Y-76770077D01*
X124642241Y-76770996D01*
X124646180Y-76770733D01*
X124661653Y-76772257D01*
X124840529Y-76772257D01*
X124929942Y-76816963D01*
X124966945Y-76853967D01*
X125011653Y-76943381D01*
X125011653Y-77229703D01*
X124966945Y-77319117D01*
X124929942Y-77356121D01*
X124840529Y-77400828D01*
X124482777Y-77400828D01*
X124393363Y-77356121D01*
X124339147Y-77301905D01*
X124316416Y-77283250D01*
X124262344Y-77260853D01*
X124203818Y-77260853D01*
X124149746Y-77283250D01*
X124108360Y-77324636D01*
X124085963Y-77378708D01*
X124085963Y-77437234D01*
X124108360Y-77491306D01*
X124127015Y-77514037D01*
X124198444Y-77585466D01*
X124209948Y-77594907D01*
X124212543Y-77597899D01*
X124217052Y-77600737D01*
X124221175Y-77604121D01*
X124224836Y-77605637D01*
X124237428Y-77613564D01*
X124380286Y-77684992D01*
X124407749Y-77695502D01*
X124413124Y-77695883D01*
X124418103Y-77697946D01*
X124447367Y-77700828D01*
X124875938Y-77700828D01*
X124905202Y-77697946D01*
X124910180Y-77695883D01*
X124915556Y-77695502D01*
X124943019Y-77684992D01*
X125085878Y-77613564D01*
X125098472Y-77605635D01*
X125102132Y-77604120D01*
X125106252Y-77600738D01*
X125110763Y-77597899D01*
X125113357Y-77594907D01*
X125124863Y-77585465D01*
X125196291Y-77514036D01*
X125205729Y-77502535D01*
X125208723Y-77499939D01*
X125211563Y-77495426D01*
X125214945Y-77491306D01*
X125216460Y-77487646D01*
X125224388Y-77475053D01*
X125295817Y-77332197D01*
X125306326Y-77304733D01*
X125306707Y-77299358D01*
X125308771Y-77294378D01*
X125311653Y-77265114D01*
X125311653Y-76907971D01*
X125308771Y-76878707D01*
X125306707Y-76873726D01*
X125306326Y-76868352D01*
X125295817Y-76840888D01*
X125224388Y-76698032D01*
X125216460Y-76685438D01*
X125214945Y-76681779D01*
X125211563Y-76677658D01*
X125208723Y-76673146D01*
X125205729Y-76670549D01*
X125196291Y-76659049D01*
X125124863Y-76587620D01*
X125113357Y-76578177D01*
X125110763Y-76575186D01*
X125106252Y-76572346D01*
X125102132Y-76568965D01*
X125098472Y-76567449D01*
X125085878Y-76559521D01*
X124967605Y-76500386D01*
X125274539Y-76149604D01*
X125283582Y-76136954D01*
X125286373Y-76134164D01*
X125287468Y-76131519D01*
X125291641Y-76125683D01*
X125299446Y-76102603D01*
X125308771Y-76080092D01*
X125308771Y-76075030D01*
X125310391Y-76070240D01*
X125308771Y-76045939D01*
X125308771Y-76021564D01*
X125306834Y-76016888D01*
X125306498Y-76011844D01*
X125295699Y-75990008D01*
X125286373Y-75967492D01*
X125282796Y-75963915D01*
X125280554Y-75959381D01*
X125262218Y-75943337D01*
X125244989Y-75926108D01*
X125240314Y-75924171D01*
X125236507Y-75920840D01*
X125213431Y-75913036D01*
X125190917Y-75903710D01*
X125183775Y-75903006D01*
X125181065Y-75902090D01*
X125177130Y-75902352D01*
X125161653Y-75900828D01*
X124233081Y-75900828D01*
X124203817Y-75903710D01*
X124149745Y-75926108D01*
X124108361Y-75967492D01*
X124085963Y-76021564D01*
X122737343Y-76021564D01*
X122735406Y-76016888D01*
X122735070Y-76011844D01*
X122724271Y-75990008D01*
X122714945Y-75967492D01*
X122711368Y-75963915D01*
X122709126Y-75959381D01*
X122690790Y-75943337D01*
X122673561Y-75926108D01*
X122668886Y-75924171D01*
X122665079Y-75920840D01*
X122642003Y-75913036D01*
X122619489Y-75903710D01*
X122612347Y-75903006D01*
X122609637Y-75902090D01*
X122605702Y-75902352D01*
X122590225Y-75900828D01*
X121661653Y-75900828D01*
X121632389Y-75903710D01*
X121578317Y-75926108D01*
X121536933Y-75967492D01*
X121514535Y-76021564D01*
X121347868Y-76021564D01*
X121347868Y-75734161D01*
X125478320Y-75734161D01*
X125478320Y-77867495D01*
G37*
G36*
X130334885Y-106807667D02*
G01*
X130282351Y-106965269D01*
X130253173Y-106994447D01*
X130163761Y-107039153D01*
X130020295Y-107039153D01*
X129930882Y-106994447D01*
X129893878Y-106957443D01*
X129849171Y-106868028D01*
X129849171Y-106482010D01*
X130334885Y-106482010D01*
X130334885Y-106807667D01*
G37*
G36*
X131049171Y-106796600D02*
G01*
X131004464Y-106886014D01*
X130967460Y-106923017D01*
X130878047Y-106967725D01*
X130806010Y-106967725D01*
X130716596Y-106923018D01*
X130679592Y-106886014D01*
X130634885Y-106796600D01*
X130634885Y-106482010D01*
X131049171Y-106482010D01*
X131049171Y-106796600D01*
G37*
G36*
X131515838Y-113502939D02*
G01*
X129382504Y-113502939D01*
X129382504Y-112332011D01*
X129549171Y-112332011D01*
X129549171Y-113189154D01*
X129552053Y-113218418D01*
X129574451Y-113272490D01*
X129615835Y-113313874D01*
X129669907Y-113336272D01*
X129728435Y-113336272D01*
X129782507Y-113313874D01*
X129823891Y-113272490D01*
X129846289Y-113218418D01*
X129849171Y-113189154D01*
X129849171Y-112910582D01*
X131199171Y-112910582D01*
X131199276Y-112910571D01*
X131199329Y-112910582D01*
X131199482Y-112910551D01*
X131228435Y-112907700D01*
X131242155Y-112902016D01*
X131256718Y-112899104D01*
X131268930Y-112890925D01*
X131282507Y-112885302D01*
X131293005Y-112874803D01*
X131305348Y-112866538D01*
X131313502Y-112854307D01*
X131323891Y-112843918D01*
X131329573Y-112830199D01*
X131337814Y-112817839D01*
X131340666Y-112803420D01*
X131346289Y-112789846D01*
X131346289Y-112774994D01*
X131349171Y-112760425D01*
X131346289Y-112746015D01*
X131346289Y-112731318D01*
X131340605Y-112717596D01*
X131337693Y-112703035D01*
X131329514Y-112690822D01*
X131323891Y-112677246D01*
X131313392Y-112666747D01*
X131305127Y-112654405D01*
X131282618Y-112635973D01*
X131282507Y-112635862D01*
X131282456Y-112635841D01*
X131282376Y-112635775D01*
X131080447Y-112501155D01*
X130965305Y-112386013D01*
X130904764Y-112264929D01*
X130889099Y-112240044D01*
X130844884Y-112201697D01*
X130789362Y-112183189D01*
X130730982Y-112187337D01*
X130678633Y-112213512D01*
X130640286Y-112257727D01*
X130621778Y-112313249D01*
X130625926Y-112371629D01*
X130636436Y-112399093D01*
X130707864Y-112541950D01*
X130715791Y-112554543D01*
X130717307Y-112558203D01*
X130720688Y-112562322D01*
X130723529Y-112566836D01*
X130726522Y-112569432D01*
X130735962Y-112580934D01*
X130765610Y-112610582D01*
X129849171Y-112610582D01*
X129849171Y-112332011D01*
X129846289Y-112302747D01*
X129823891Y-112248675D01*
X129782507Y-112207291D01*
X129728435Y-112184893D01*
X129669907Y-112184893D01*
X129615835Y-112207291D01*
X129574451Y-112248675D01*
X129552053Y-112302747D01*
X129549171Y-112332011D01*
X129382504Y-112332011D01*
X129382504Y-111768745D01*
X129549393Y-111768745D01*
X129563918Y-111825442D01*
X129599035Y-111872264D01*
X129649397Y-111902083D01*
X129707334Y-111910360D01*
X129764031Y-111895835D01*
X129789171Y-111880582D01*
X130542238Y-111315781D01*
X131093105Y-111866648D01*
X131115835Y-111885303D01*
X131169908Y-111907700D01*
X131228434Y-111907700D01*
X131282506Y-111885303D01*
X131323892Y-111843917D01*
X131346289Y-111789845D01*
X131346289Y-111731319D01*
X131323892Y-111677246D01*
X131305237Y-111654516D01*
X130704160Y-111053439D01*
X131199171Y-111053439D01*
X131228435Y-111050557D01*
X131282507Y-111028159D01*
X131323891Y-110986775D01*
X131346289Y-110932703D01*
X131346289Y-110874175D01*
X131323891Y-110820103D01*
X131282507Y-110778719D01*
X131228435Y-110756321D01*
X131199171Y-110753439D01*
X129699171Y-110753439D01*
X129669907Y-110756321D01*
X129615835Y-110778719D01*
X129574451Y-110820103D01*
X129552053Y-110874175D01*
X129552053Y-110932703D01*
X129574451Y-110986775D01*
X129615835Y-111028159D01*
X129669907Y-111050557D01*
X129699171Y-111053439D01*
X130279896Y-111053439D01*
X130327952Y-111101495D01*
X129609171Y-111640582D01*
X129587489Y-111660446D01*
X129557670Y-111710808D01*
X129549393Y-111768745D01*
X129382504Y-111768745D01*
X129382504Y-109832011D01*
X129549171Y-109832011D01*
X129549171Y-109974868D01*
X129550629Y-109989679D01*
X129550349Y-109993629D01*
X129551530Y-109998823D01*
X129552053Y-110004132D01*
X129553570Y-110007794D01*
X129556869Y-110022302D01*
X129628297Y-110236588D01*
X129640286Y-110263439D01*
X129643816Y-110267509D01*
X129645879Y-110272489D01*
X129664534Y-110295220D01*
X129735962Y-110366648D01*
X129758692Y-110385303D01*
X129812765Y-110407699D01*
X129871291Y-110407699D01*
X129925363Y-110385303D01*
X129966749Y-110343917D01*
X129989145Y-110289845D01*
X129989145Y-110231319D01*
X129966749Y-110177246D01*
X129948094Y-110154516D01*
X129901704Y-110108126D01*
X129849171Y-109950527D01*
X129849171Y-109856351D01*
X129901704Y-109698752D01*
X130002311Y-109598145D01*
X130108670Y-109544966D01*
X130360492Y-109482011D01*
X130537850Y-109482011D01*
X130789671Y-109544965D01*
X130896031Y-109598146D01*
X130996637Y-109698752D01*
X131049171Y-109856353D01*
X131049171Y-109950525D01*
X130996637Y-110108126D01*
X130950248Y-110154516D01*
X130931593Y-110177247D01*
X130909196Y-110231319D01*
X130909196Y-110289845D01*
X130931593Y-110343917D01*
X130972979Y-110385303D01*
X131027051Y-110407700D01*
X131085577Y-110407700D01*
X131139649Y-110385303D01*
X131162380Y-110366648D01*
X131233808Y-110295220D01*
X131252463Y-110272490D01*
X131254526Y-110267509D01*
X131258056Y-110263439D01*
X131270044Y-110236588D01*
X131341473Y-110022303D01*
X131344772Y-110007793D01*
X131346289Y-110004132D01*
X131346811Y-109998823D01*
X131347993Y-109993629D01*
X131347712Y-109989679D01*
X131349171Y-109974868D01*
X131349171Y-109832011D01*
X131347712Y-109817199D01*
X131347993Y-109813250D01*
X131346811Y-109808055D01*
X131346289Y-109802747D01*
X131344772Y-109799085D01*
X131341473Y-109784576D01*
X131270044Y-109570291D01*
X131258056Y-109543440D01*
X131254526Y-109539370D01*
X131252463Y-109534389D01*
X131233808Y-109511659D01*
X131090951Y-109368802D01*
X131079449Y-109359362D01*
X131076853Y-109356369D01*
X131072339Y-109353528D01*
X131068220Y-109350147D01*
X131064560Y-109348631D01*
X131051967Y-109340704D01*
X130909110Y-109269275D01*
X130906969Y-109268455D01*
X130906099Y-109267811D01*
X130893821Y-109263424D01*
X130881647Y-109258766D01*
X130880566Y-109258689D01*
X130878408Y-109257918D01*
X130592694Y-109186490D01*
X130587622Y-109185740D01*
X130585578Y-109184893D01*
X130574555Y-109183807D01*
X130563605Y-109182188D01*
X130561417Y-109182513D01*
X130556314Y-109182011D01*
X130342028Y-109182011D01*
X130336924Y-109182513D01*
X130334737Y-109182188D01*
X130323786Y-109183807D01*
X130312764Y-109184893D01*
X130310719Y-109185740D01*
X130305648Y-109186490D01*
X130019934Y-109257918D01*
X130017775Y-109258689D01*
X130016695Y-109258766D01*
X130004514Y-109263426D01*
X129992243Y-109267811D01*
X129991373Y-109268455D01*
X129989231Y-109269275D01*
X129846375Y-109340704D01*
X129833783Y-109348630D01*
X129830121Y-109350147D01*
X129825998Y-109353530D01*
X129821489Y-109356369D01*
X129818893Y-109359361D01*
X129807391Y-109368802D01*
X129664534Y-109511659D01*
X129645879Y-109534390D01*
X129643816Y-109539369D01*
X129640286Y-109543440D01*
X129628297Y-109570291D01*
X129556869Y-109784577D01*
X129553570Y-109799084D01*
X129552053Y-109802747D01*
X129551530Y-109808055D01*
X129550349Y-109813250D01*
X129550629Y-109817199D01*
X129549171Y-109832011D01*
X129382504Y-109832011D01*
X129382504Y-108117725D01*
X129549171Y-108117725D01*
X129549171Y-108403439D01*
X129552053Y-108432703D01*
X129554116Y-108437683D01*
X129554498Y-108443058D01*
X129565007Y-108470521D01*
X129636436Y-108613378D01*
X129644364Y-108625973D01*
X129645879Y-108629630D01*
X129649258Y-108633747D01*
X129652101Y-108638264D01*
X129655095Y-108640861D01*
X129664533Y-108652361D01*
X129735961Y-108723790D01*
X129747466Y-108733232D01*
X129750061Y-108736224D01*
X129754571Y-108739063D01*
X129758692Y-108742445D01*
X129762351Y-108743960D01*
X129774946Y-108751889D01*
X129917804Y-108823317D01*
X129945267Y-108833827D01*
X129950642Y-108834208D01*
X129955621Y-108836271D01*
X129984885Y-108839153D01*
X131199171Y-108839153D01*
X131228435Y-108836271D01*
X131282507Y-108813873D01*
X131323891Y-108772489D01*
X131346289Y-108718417D01*
X131346289Y-108659889D01*
X131323891Y-108605817D01*
X131282507Y-108564433D01*
X131228435Y-108542035D01*
X131199171Y-108539153D01*
X130020295Y-108539153D01*
X129930882Y-108494447D01*
X129893878Y-108457443D01*
X129849171Y-108368028D01*
X129849171Y-108153135D01*
X129893878Y-108063720D01*
X129930882Y-108026716D01*
X130020295Y-107982010D01*
X131199171Y-107982010D01*
X131228435Y-107979128D01*
X131282507Y-107956730D01*
X131323891Y-107915346D01*
X131346289Y-107861274D01*
X131346289Y-107802746D01*
X131323891Y-107748674D01*
X131282507Y-107707290D01*
X131228435Y-107684892D01*
X131199171Y-107682010D01*
X129984885Y-107682010D01*
X129955621Y-107684892D01*
X129950640Y-107686955D01*
X129945266Y-107687337D01*
X129917802Y-107697846D01*
X129774946Y-107769275D01*
X129762349Y-107777203D01*
X129758692Y-107778719D01*
X129754574Y-107782098D01*
X129750060Y-107784940D01*
X129747462Y-107787934D01*
X129735961Y-107797374D01*
X129664533Y-107868803D01*
X129655095Y-107880302D01*
X129652101Y-107882900D01*
X129649258Y-107887416D01*
X129645879Y-107891534D01*
X129644364Y-107895190D01*
X129636436Y-107907786D01*
X129565007Y-108050643D01*
X129554498Y-108078106D01*
X129554116Y-108083480D01*
X129552053Y-108088461D01*
X129549171Y-108117725D01*
X129382504Y-108117725D01*
X129382504Y-106332010D01*
X129549171Y-106332010D01*
X129549171Y-106903439D01*
X129552053Y-106932703D01*
X129554116Y-106937683D01*
X129554498Y-106943058D01*
X129565007Y-106970521D01*
X129636436Y-107113378D01*
X129644364Y-107125973D01*
X129645879Y-107129630D01*
X129649258Y-107133747D01*
X129652101Y-107138264D01*
X129655095Y-107140861D01*
X129664533Y-107152361D01*
X129735961Y-107223790D01*
X129747466Y-107233232D01*
X129750061Y-107236224D01*
X129754571Y-107239063D01*
X129758692Y-107242445D01*
X129762351Y-107243960D01*
X129774946Y-107251889D01*
X129917804Y-107323317D01*
X129945267Y-107333827D01*
X129950642Y-107334208D01*
X129955621Y-107336271D01*
X129984885Y-107339153D01*
X130199171Y-107339153D01*
X130228435Y-107336271D01*
X130233413Y-107334208D01*
X130238789Y-107333827D01*
X130266253Y-107323317D01*
X130409110Y-107251889D01*
X130421703Y-107243961D01*
X130425363Y-107242446D01*
X130429482Y-107239064D01*
X130433996Y-107236224D01*
X130436592Y-107233230D01*
X130448094Y-107223791D01*
X130519523Y-107152362D01*
X130520493Y-107151179D01*
X130521676Y-107152362D01*
X130533178Y-107161802D01*
X130535774Y-107164795D01*
X130540283Y-107167633D01*
X130544406Y-107171017D01*
X130548068Y-107172533D01*
X130560660Y-107180460D01*
X130703518Y-107251889D01*
X130730981Y-107262399D01*
X130736358Y-107262781D01*
X130741336Y-107264843D01*
X130770600Y-107267725D01*
X130913457Y-107267725D01*
X130942721Y-107264843D01*
X130947701Y-107262779D01*
X130953076Y-107262398D01*
X130980539Y-107251889D01*
X131123396Y-107180460D01*
X131135989Y-107172532D01*
X131139649Y-107171017D01*
X131143768Y-107167635D01*
X131148282Y-107164795D01*
X131150878Y-107161801D01*
X131162380Y-107152362D01*
X131233808Y-107080934D01*
X131243248Y-107069431D01*
X131246241Y-107066836D01*
X131249079Y-107062326D01*
X131252463Y-107058204D01*
X131253979Y-107054541D01*
X131261906Y-107041950D01*
X131333335Y-106899092D01*
X131343845Y-106871629D01*
X131344227Y-106866251D01*
X131346289Y-106861274D01*
X131349171Y-106832010D01*
X131349171Y-106332010D01*
X131346289Y-106302746D01*
X131323891Y-106248674D01*
X131282507Y-106207290D01*
X131228435Y-106184892D01*
X131199171Y-106182010D01*
X129699171Y-106182010D01*
X129669907Y-106184892D01*
X129615835Y-106207290D01*
X129574451Y-106248674D01*
X129552053Y-106302746D01*
X129549171Y-106332010D01*
X129382504Y-106332010D01*
X129382504Y-106015343D01*
X131515838Y-106015343D01*
X131515838Y-113502939D01*
G37*
D12*
G36*
X122341437Y-58843647D02*
G01*
X119635423Y-58843647D01*
X119635423Y-57994224D01*
X119746534Y-57994224D01*
X119746534Y-58033242D01*
X119761466Y-58069290D01*
X119789056Y-58096880D01*
X119825104Y-58111812D01*
X119844613Y-58113733D01*
X120606517Y-58113733D01*
X120626026Y-58111812D01*
X120662074Y-58096880D01*
X120689664Y-58069290D01*
X120704596Y-58033242D01*
X120704596Y-57994224D01*
X120689664Y-57958176D01*
X120662074Y-57930586D01*
X120626026Y-57915654D01*
X120606517Y-57913733D01*
X119844613Y-57913733D01*
X119825104Y-57915654D01*
X119789056Y-57930586D01*
X119761466Y-57958176D01*
X119746534Y-57994224D01*
X119635423Y-57994224D01*
X119635423Y-57632780D01*
X120982708Y-57632780D01*
X120982708Y-58632780D01*
X120984629Y-58652289D01*
X120999561Y-58688337D01*
X121027151Y-58715927D01*
X121063199Y-58730859D01*
X121102217Y-58730859D01*
X121138265Y-58715927D01*
X121165855Y-58688337D01*
X121180787Y-58652289D01*
X121182708Y-58632780D01*
X121182708Y-58009336D01*
X121567312Y-58682394D01*
X121570230Y-58686504D01*
X121570989Y-58688337D01*
X121572855Y-58690203D01*
X121578659Y-58698379D01*
X121589175Y-58706523D01*
X121598579Y-58715927D01*
X121604466Y-58718365D01*
X121609508Y-58722270D01*
X121622340Y-58725769D01*
X121634627Y-58730859D01*
X121641003Y-58730859D01*
X121647152Y-58732536D01*
X121660345Y-58730859D01*
X121673645Y-58730859D01*
X121679533Y-58728419D01*
X121685858Y-58727616D01*
X121697407Y-58721015D01*
X121709693Y-58715927D01*
X121714200Y-58711419D01*
X121719735Y-58708257D01*
X121727879Y-58697740D01*
X121737283Y-58688337D01*
X121739721Y-58682449D01*
X121743626Y-58677408D01*
X121747125Y-58664575D01*
X121752215Y-58652289D01*
X121753197Y-58642311D01*
X121753892Y-58639765D01*
X121753641Y-58637797D01*
X121754136Y-58632780D01*
X121754136Y-57632780D01*
X122030326Y-57632780D01*
X122030326Y-58632780D01*
X122032247Y-58652289D01*
X122047179Y-58688337D01*
X122074769Y-58715927D01*
X122110817Y-58730859D01*
X122149835Y-58730859D01*
X122185883Y-58715927D01*
X122213473Y-58688337D01*
X122228405Y-58652289D01*
X122230326Y-58632780D01*
X122230326Y-57632780D01*
X122228405Y-57613271D01*
X122213473Y-57577223D01*
X122185883Y-57549633D01*
X122149835Y-57534701D01*
X122110817Y-57534701D01*
X122074769Y-57549633D01*
X122047179Y-57577223D01*
X122032247Y-57613271D01*
X122030326Y-57632780D01*
X121754136Y-57632780D01*
X121752215Y-57613271D01*
X121737283Y-57577223D01*
X121709693Y-57549633D01*
X121673645Y-57534701D01*
X121634627Y-57534701D01*
X121598579Y-57549633D01*
X121570989Y-57577223D01*
X121556057Y-57613271D01*
X121554136Y-57632780D01*
X121554136Y-58256223D01*
X121169532Y-57583166D01*
X121166613Y-57579055D01*
X121165855Y-57577223D01*
X121163988Y-57575356D01*
X121158185Y-57567181D01*
X121147670Y-57559038D01*
X121138265Y-57549633D01*
X121132374Y-57547193D01*
X121127336Y-57543291D01*
X121114507Y-57539792D01*
X121102217Y-57534701D01*
X121095842Y-57534701D01*
X121089693Y-57533024D01*
X121076500Y-57534701D01*
X121063199Y-57534701D01*
X121057310Y-57537140D01*
X121050986Y-57537944D01*
X121039436Y-57544544D01*
X121027151Y-57549633D01*
X121022643Y-57554140D01*
X121017109Y-57557303D01*
X121008966Y-57567817D01*
X120999561Y-57577223D01*
X120997121Y-57583113D01*
X120993219Y-57588152D01*
X120989720Y-57600980D01*
X120984629Y-57613271D01*
X120983646Y-57623248D01*
X120982952Y-57625795D01*
X120983202Y-57627762D01*
X120982708Y-57632780D01*
X119635423Y-57632780D01*
X119635423Y-57421913D01*
X122341437Y-57421913D01*
X122341437Y-58843647D01*
G37*
D13*
X143294819Y-88333333D02*
X144009104Y-88333333D01*
X144009104Y-88333333D02*
X144151961Y-88380952D01*
X144151961Y-88380952D02*
X144247200Y-88476190D01*
X144247200Y-88476190D02*
X144294819Y-88619047D01*
X144294819Y-88619047D02*
X144294819Y-88714285D01*
X144294819Y-87809523D02*
X144294819Y-87619047D01*
X144294819Y-87619047D02*
X144247200Y-87523809D01*
X144247200Y-87523809D02*
X144199580Y-87476190D01*
X144199580Y-87476190D02*
X144056723Y-87380952D01*
X144056723Y-87380952D02*
X143866247Y-87333333D01*
X143866247Y-87333333D02*
X143485295Y-87333333D01*
X143485295Y-87333333D02*
X143390057Y-87380952D01*
X143390057Y-87380952D02*
X143342438Y-87428571D01*
X143342438Y-87428571D02*
X143294819Y-87523809D01*
X143294819Y-87523809D02*
X143294819Y-87714285D01*
X143294819Y-87714285D02*
X143342438Y-87809523D01*
X143342438Y-87809523D02*
X143390057Y-87857142D01*
X143390057Y-87857142D02*
X143485295Y-87904761D01*
X143485295Y-87904761D02*
X143723390Y-87904761D01*
X143723390Y-87904761D02*
X143818628Y-87857142D01*
X143818628Y-87857142D02*
X143866247Y-87809523D01*
X143866247Y-87809523D02*
X143913866Y-87714285D01*
X143913866Y-87714285D02*
X143913866Y-87523809D01*
X143913866Y-87523809D02*
X143866247Y-87428571D01*
X143866247Y-87428571D02*
X143818628Y-87380952D01*
X143818628Y-87380952D02*
X143723390Y-87333333D01*
X88690476Y-60314819D02*
X88690476Y-61029104D01*
X88690476Y-61029104D02*
X88642857Y-61171961D01*
X88642857Y-61171961D02*
X88547619Y-61267200D01*
X88547619Y-61267200D02*
X88404762Y-61314819D01*
X88404762Y-61314819D02*
X88309524Y-61314819D01*
X89690476Y-61314819D02*
X89119048Y-61314819D01*
X89404762Y-61314819D02*
X89404762Y-60314819D01*
X89404762Y-60314819D02*
X89309524Y-60457676D01*
X89309524Y-60457676D02*
X89214286Y-60552914D01*
X89214286Y-60552914D02*
X89119048Y-60600533D01*
X90547619Y-60648152D02*
X90547619Y-61314819D01*
X90309524Y-60267200D02*
X90071429Y-60981485D01*
X90071429Y-60981485D02*
X90690476Y-60981485D01*
X152794819Y-99583333D02*
X153509104Y-99583333D01*
X153509104Y-99583333D02*
X153651961Y-99630952D01*
X153651961Y-99630952D02*
X153747200Y-99726190D01*
X153747200Y-99726190D02*
X153794819Y-99869047D01*
X153794819Y-99869047D02*
X153794819Y-99964285D01*
X152794819Y-98678571D02*
X152794819Y-98869047D01*
X152794819Y-98869047D02*
X152842438Y-98964285D01*
X152842438Y-98964285D02*
X152890057Y-99011904D01*
X152890057Y-99011904D02*
X153032914Y-99107142D01*
X153032914Y-99107142D02*
X153223390Y-99154761D01*
X153223390Y-99154761D02*
X153604342Y-99154761D01*
X153604342Y-99154761D02*
X153699580Y-99107142D01*
X153699580Y-99107142D02*
X153747200Y-99059523D01*
X153747200Y-99059523D02*
X153794819Y-98964285D01*
X153794819Y-98964285D02*
X153794819Y-98773809D01*
X153794819Y-98773809D02*
X153747200Y-98678571D01*
X153747200Y-98678571D02*
X153699580Y-98630952D01*
X153699580Y-98630952D02*
X153604342Y-98583333D01*
X153604342Y-98583333D02*
X153366247Y-98583333D01*
X153366247Y-98583333D02*
X153271009Y-98630952D01*
X153271009Y-98630952D02*
X153223390Y-98678571D01*
X153223390Y-98678571D02*
X153175771Y-98773809D01*
X153175771Y-98773809D02*
X153175771Y-98964285D01*
X153175771Y-98964285D02*
X153223390Y-99059523D01*
X153223390Y-99059523D02*
X153271009Y-99107142D01*
X153271009Y-99107142D02*
X153366247Y-99154761D01*
X126940476Y-70934819D02*
X126940476Y-71649104D01*
X126940476Y-71649104D02*
X126892857Y-71791961D01*
X126892857Y-71791961D02*
X126797619Y-71887200D01*
X126797619Y-71887200D02*
X126654762Y-71934819D01*
X126654762Y-71934819D02*
X126559524Y-71934819D01*
X127940476Y-71934819D02*
X127369048Y-71934819D01*
X127654762Y-71934819D02*
X127654762Y-70934819D01*
X127654762Y-70934819D02*
X127559524Y-71077676D01*
X127559524Y-71077676D02*
X127464286Y-71172914D01*
X127464286Y-71172914D02*
X127369048Y-71220533D01*
X128511905Y-71363390D02*
X128416667Y-71315771D01*
X128416667Y-71315771D02*
X128369048Y-71268152D01*
X128369048Y-71268152D02*
X128321429Y-71172914D01*
X128321429Y-71172914D02*
X128321429Y-71125295D01*
X128321429Y-71125295D02*
X128369048Y-71030057D01*
X128369048Y-71030057D02*
X128416667Y-70982438D01*
X128416667Y-70982438D02*
X128511905Y-70934819D01*
X128511905Y-70934819D02*
X128702381Y-70934819D01*
X128702381Y-70934819D02*
X128797619Y-70982438D01*
X128797619Y-70982438D02*
X128845238Y-71030057D01*
X128845238Y-71030057D02*
X128892857Y-71125295D01*
X128892857Y-71125295D02*
X128892857Y-71172914D01*
X128892857Y-71172914D02*
X128845238Y-71268152D01*
X128845238Y-71268152D02*
X128797619Y-71315771D01*
X128797619Y-71315771D02*
X128702381Y-71363390D01*
X128702381Y-71363390D02*
X128511905Y-71363390D01*
X128511905Y-71363390D02*
X128416667Y-71411009D01*
X128416667Y-71411009D02*
X128369048Y-71458628D01*
X128369048Y-71458628D02*
X128321429Y-71553866D01*
X128321429Y-71553866D02*
X128321429Y-71744342D01*
X128321429Y-71744342D02*
X128369048Y-71839580D01*
X128369048Y-71839580D02*
X128416667Y-71887200D01*
X128416667Y-71887200D02*
X128511905Y-71934819D01*
X128511905Y-71934819D02*
X128702381Y-71934819D01*
X128702381Y-71934819D02*
X128797619Y-71887200D01*
X128797619Y-71887200D02*
X128845238Y-71839580D01*
X128845238Y-71839580D02*
X128892857Y-71744342D01*
X128892857Y-71744342D02*
X128892857Y-71553866D01*
X128892857Y-71553866D02*
X128845238Y-71458628D01*
X128845238Y-71458628D02*
X128797619Y-71411009D01*
X128797619Y-71411009D02*
X128702381Y-71363390D01*
X124683929Y-71352319D02*
X124683929Y-72066604D01*
X124683929Y-72066604D02*
X124636310Y-72209461D01*
X124636310Y-72209461D02*
X124541072Y-72304700D01*
X124541072Y-72304700D02*
X124398215Y-72352319D01*
X124398215Y-72352319D02*
X124302977Y-72352319D01*
X125112501Y-71447557D02*
X125160120Y-71399938D01*
X125160120Y-71399938D02*
X125255358Y-71352319D01*
X125255358Y-71352319D02*
X125493453Y-71352319D01*
X125493453Y-71352319D02*
X125588691Y-71399938D01*
X125588691Y-71399938D02*
X125636310Y-71447557D01*
X125636310Y-71447557D02*
X125683929Y-71542795D01*
X125683929Y-71542795D02*
X125683929Y-71638033D01*
X125683929Y-71638033D02*
X125636310Y-71780890D01*
X125636310Y-71780890D02*
X125064882Y-72352319D01*
X125064882Y-72352319D02*
X125683929Y-72352319D01*
X126636310Y-72352319D02*
X126064882Y-72352319D01*
X126350596Y-72352319D02*
X126350596Y-71352319D01*
X126350596Y-71352319D02*
X126255358Y-71495176D01*
X126255358Y-71495176D02*
X126160120Y-71590414D01*
X126160120Y-71590414D02*
X126064882Y-71638033D01*
X152794819Y-92083333D02*
X153509104Y-92083333D01*
X153509104Y-92083333D02*
X153651961Y-92130952D01*
X153651961Y-92130952D02*
X153747200Y-92226190D01*
X153747200Y-92226190D02*
X153794819Y-92369047D01*
X153794819Y-92369047D02*
X153794819Y-92464285D01*
X153128152Y-91178571D02*
X153794819Y-91178571D01*
X152747200Y-91416666D02*
X153461485Y-91654761D01*
X153461485Y-91654761D02*
X153461485Y-91035714D01*
X111690476Y-60104819D02*
X111690476Y-60819104D01*
X111690476Y-60819104D02*
X111642857Y-60961961D01*
X111642857Y-60961961D02*
X111547619Y-61057200D01*
X111547619Y-61057200D02*
X111404762Y-61104819D01*
X111404762Y-61104819D02*
X111309524Y-61104819D01*
X112690476Y-61104819D02*
X112119048Y-61104819D01*
X112404762Y-61104819D02*
X112404762Y-60104819D01*
X112404762Y-60104819D02*
X112309524Y-60247676D01*
X112309524Y-60247676D02*
X112214286Y-60342914D01*
X112214286Y-60342914D02*
X112119048Y-60390533D01*
X113023810Y-60104819D02*
X113690476Y-60104819D01*
X113690476Y-60104819D02*
X113261905Y-61104819D01*
X143294819Y-103809523D02*
X144009104Y-103809523D01*
X144009104Y-103809523D02*
X144151961Y-103857142D01*
X144151961Y-103857142D02*
X144247200Y-103952380D01*
X144247200Y-103952380D02*
X144294819Y-104095237D01*
X144294819Y-104095237D02*
X144294819Y-104190475D01*
X144294819Y-102809523D02*
X144294819Y-103380951D01*
X144294819Y-103095237D02*
X143294819Y-103095237D01*
X143294819Y-103095237D02*
X143437676Y-103190475D01*
X143437676Y-103190475D02*
X143532914Y-103285713D01*
X143532914Y-103285713D02*
X143580533Y-103380951D01*
X143294819Y-102476189D02*
X143294819Y-101857142D01*
X143294819Y-101857142D02*
X143675771Y-102190475D01*
X143675771Y-102190475D02*
X143675771Y-102047618D01*
X143675771Y-102047618D02*
X143723390Y-101952380D01*
X143723390Y-101952380D02*
X143771009Y-101904761D01*
X143771009Y-101904761D02*
X143866247Y-101857142D01*
X143866247Y-101857142D02*
X144104342Y-101857142D01*
X144104342Y-101857142D02*
X144199580Y-101904761D01*
X144199580Y-101904761D02*
X144247200Y-101952380D01*
X144247200Y-101952380D02*
X144294819Y-102047618D01*
X144294819Y-102047618D02*
X144294819Y-102333332D01*
X144294819Y-102333332D02*
X144247200Y-102428570D01*
X144247200Y-102428570D02*
X144199580Y-102476189D01*
X152794819Y-88333333D02*
X153509104Y-88333333D01*
X153509104Y-88333333D02*
X153651961Y-88380952D01*
X153651961Y-88380952D02*
X153747200Y-88476190D01*
X153747200Y-88476190D02*
X153794819Y-88619047D01*
X153794819Y-88619047D02*
X153794819Y-88714285D01*
X152794819Y-87952380D02*
X152794819Y-87333333D01*
X152794819Y-87333333D02*
X153175771Y-87666666D01*
X153175771Y-87666666D02*
X153175771Y-87523809D01*
X153175771Y-87523809D02*
X153223390Y-87428571D01*
X153223390Y-87428571D02*
X153271009Y-87380952D01*
X153271009Y-87380952D02*
X153366247Y-87333333D01*
X153366247Y-87333333D02*
X153604342Y-87333333D01*
X153604342Y-87333333D02*
X153699580Y-87380952D01*
X153699580Y-87380952D02*
X153747200Y-87428571D01*
X153747200Y-87428571D02*
X153794819Y-87523809D01*
X153794819Y-87523809D02*
X153794819Y-87809523D01*
X153794819Y-87809523D02*
X153747200Y-87904761D01*
X153747200Y-87904761D02*
X153699580Y-87952380D01*
X107690476Y-60084819D02*
X107690476Y-60799104D01*
X107690476Y-60799104D02*
X107642857Y-60941961D01*
X107642857Y-60941961D02*
X107547619Y-61037200D01*
X107547619Y-61037200D02*
X107404762Y-61084819D01*
X107404762Y-61084819D02*
X107309524Y-61084819D01*
X108690476Y-61084819D02*
X108119048Y-61084819D01*
X108404762Y-61084819D02*
X108404762Y-60084819D01*
X108404762Y-60084819D02*
X108309524Y-60227676D01*
X108309524Y-60227676D02*
X108214286Y-60322914D01*
X108214286Y-60322914D02*
X108119048Y-60370533D01*
X109595238Y-60084819D02*
X109119048Y-60084819D01*
X109119048Y-60084819D02*
X109071429Y-60561009D01*
X109071429Y-60561009D02*
X109119048Y-60513390D01*
X109119048Y-60513390D02*
X109214286Y-60465771D01*
X109214286Y-60465771D02*
X109452381Y-60465771D01*
X109452381Y-60465771D02*
X109547619Y-60513390D01*
X109547619Y-60513390D02*
X109595238Y-60561009D01*
X109595238Y-60561009D02*
X109642857Y-60656247D01*
X109642857Y-60656247D02*
X109642857Y-60894342D01*
X109642857Y-60894342D02*
X109595238Y-60989580D01*
X109595238Y-60989580D02*
X109547619Y-61037200D01*
X109547619Y-61037200D02*
X109452381Y-61084819D01*
X109452381Y-61084819D02*
X109214286Y-61084819D01*
X109214286Y-61084819D02*
X109119048Y-61037200D01*
X109119048Y-61037200D02*
X109071429Y-60989580D01*
X143294819Y-96309523D02*
X144009104Y-96309523D01*
X144009104Y-96309523D02*
X144151961Y-96357142D01*
X144151961Y-96357142D02*
X144247200Y-96452380D01*
X144247200Y-96452380D02*
X144294819Y-96595237D01*
X144294819Y-96595237D02*
X144294819Y-96690475D01*
X144294819Y-95309523D02*
X144294819Y-95880951D01*
X144294819Y-95595237D02*
X143294819Y-95595237D01*
X143294819Y-95595237D02*
X143437676Y-95690475D01*
X143437676Y-95690475D02*
X143532914Y-95785713D01*
X143532914Y-95785713D02*
X143580533Y-95880951D01*
X144294819Y-94357142D02*
X144294819Y-94928570D01*
X144294819Y-94642856D02*
X143294819Y-94642856D01*
X143294819Y-94642856D02*
X143437676Y-94738094D01*
X143437676Y-94738094D02*
X143532914Y-94833332D01*
X143532914Y-94833332D02*
X143580533Y-94928570D01*
X125166666Y-103134819D02*
X125166666Y-103849104D01*
X125166666Y-103849104D02*
X125119047Y-103991961D01*
X125119047Y-103991961D02*
X125023809Y-104087200D01*
X125023809Y-104087200D02*
X124880952Y-104134819D01*
X124880952Y-104134819D02*
X124785714Y-104134819D01*
X126166666Y-104134819D02*
X125595238Y-104134819D01*
X125880952Y-104134819D02*
X125880952Y-103134819D01*
X125880952Y-103134819D02*
X125785714Y-103277676D01*
X125785714Y-103277676D02*
X125690476Y-103372914D01*
X125690476Y-103372914D02*
X125595238Y-103420533D01*
X85190476Y-60314819D02*
X85190476Y-61029104D01*
X85190476Y-61029104D02*
X85142857Y-61171961D01*
X85142857Y-61171961D02*
X85047619Y-61267200D01*
X85047619Y-61267200D02*
X84904762Y-61314819D01*
X84904762Y-61314819D02*
X84809524Y-61314819D01*
X86190476Y-61314819D02*
X85619048Y-61314819D01*
X85904762Y-61314819D02*
X85904762Y-60314819D01*
X85904762Y-60314819D02*
X85809524Y-60457676D01*
X85809524Y-60457676D02*
X85714286Y-60552914D01*
X85714286Y-60552914D02*
X85619048Y-60600533D01*
X87047619Y-60314819D02*
X86857143Y-60314819D01*
X86857143Y-60314819D02*
X86761905Y-60362438D01*
X86761905Y-60362438D02*
X86714286Y-60410057D01*
X86714286Y-60410057D02*
X86619048Y-60552914D01*
X86619048Y-60552914D02*
X86571429Y-60743390D01*
X86571429Y-60743390D02*
X86571429Y-61124342D01*
X86571429Y-61124342D02*
X86619048Y-61219580D01*
X86619048Y-61219580D02*
X86666667Y-61267200D01*
X86666667Y-61267200D02*
X86761905Y-61314819D01*
X86761905Y-61314819D02*
X86952381Y-61314819D01*
X86952381Y-61314819D02*
X87047619Y-61267200D01*
X87047619Y-61267200D02*
X87095238Y-61219580D01*
X87095238Y-61219580D02*
X87142857Y-61124342D01*
X87142857Y-61124342D02*
X87142857Y-60886247D01*
X87142857Y-60886247D02*
X87095238Y-60791009D01*
X87095238Y-60791009D02*
X87047619Y-60743390D01*
X87047619Y-60743390D02*
X86952381Y-60695771D01*
X86952381Y-60695771D02*
X86761905Y-60695771D01*
X86761905Y-60695771D02*
X86666667Y-60743390D01*
X86666667Y-60743390D02*
X86619048Y-60791009D01*
X86619048Y-60791009D02*
X86571429Y-60886247D01*
X143294819Y-84583333D02*
X144009104Y-84583333D01*
X144009104Y-84583333D02*
X144151961Y-84630952D01*
X144151961Y-84630952D02*
X144247200Y-84726190D01*
X144247200Y-84726190D02*
X144294819Y-84869047D01*
X144294819Y-84869047D02*
X144294819Y-84964285D01*
X143723390Y-83964285D02*
X143675771Y-84059523D01*
X143675771Y-84059523D02*
X143628152Y-84107142D01*
X143628152Y-84107142D02*
X143532914Y-84154761D01*
X143532914Y-84154761D02*
X143485295Y-84154761D01*
X143485295Y-84154761D02*
X143390057Y-84107142D01*
X143390057Y-84107142D02*
X143342438Y-84059523D01*
X143342438Y-84059523D02*
X143294819Y-83964285D01*
X143294819Y-83964285D02*
X143294819Y-83773809D01*
X143294819Y-83773809D02*
X143342438Y-83678571D01*
X143342438Y-83678571D02*
X143390057Y-83630952D01*
X143390057Y-83630952D02*
X143485295Y-83583333D01*
X143485295Y-83583333D02*
X143532914Y-83583333D01*
X143532914Y-83583333D02*
X143628152Y-83630952D01*
X143628152Y-83630952D02*
X143675771Y-83678571D01*
X143675771Y-83678571D02*
X143723390Y-83773809D01*
X143723390Y-83773809D02*
X143723390Y-83964285D01*
X143723390Y-83964285D02*
X143771009Y-84059523D01*
X143771009Y-84059523D02*
X143818628Y-84107142D01*
X143818628Y-84107142D02*
X143913866Y-84154761D01*
X143913866Y-84154761D02*
X144104342Y-84154761D01*
X144104342Y-84154761D02*
X144199580Y-84107142D01*
X144199580Y-84107142D02*
X144247200Y-84059523D01*
X144247200Y-84059523D02*
X144294819Y-83964285D01*
X144294819Y-83964285D02*
X144294819Y-83773809D01*
X144294819Y-83773809D02*
X144247200Y-83678571D01*
X144247200Y-83678571D02*
X144199580Y-83630952D01*
X144199580Y-83630952D02*
X144104342Y-83583333D01*
X144104342Y-83583333D02*
X143913866Y-83583333D01*
X143913866Y-83583333D02*
X143818628Y-83630952D01*
X143818628Y-83630952D02*
X143771009Y-83678571D01*
X143771009Y-83678571D02*
X143723390Y-83773809D01*
X152794819Y-95833333D02*
X153509104Y-95833333D01*
X153509104Y-95833333D02*
X153651961Y-95880952D01*
X153651961Y-95880952D02*
X153747200Y-95976190D01*
X153747200Y-95976190D02*
X153794819Y-96119047D01*
X153794819Y-96119047D02*
X153794819Y-96214285D01*
X152794819Y-94880952D02*
X152794819Y-95357142D01*
X152794819Y-95357142D02*
X153271009Y-95404761D01*
X153271009Y-95404761D02*
X153223390Y-95357142D01*
X153223390Y-95357142D02*
X153175771Y-95261904D01*
X153175771Y-95261904D02*
X153175771Y-95023809D01*
X153175771Y-95023809D02*
X153223390Y-94928571D01*
X153223390Y-94928571D02*
X153271009Y-94880952D01*
X153271009Y-94880952D02*
X153366247Y-94833333D01*
X153366247Y-94833333D02*
X153604342Y-94833333D01*
X153604342Y-94833333D02*
X153699580Y-94880952D01*
X153699580Y-94880952D02*
X153747200Y-94928571D01*
X153747200Y-94928571D02*
X153794819Y-95023809D01*
X153794819Y-95023809D02*
X153794819Y-95261904D01*
X153794819Y-95261904D02*
X153747200Y-95357142D01*
X153747200Y-95357142D02*
X153699580Y-95404761D01*
X143294819Y-92559523D02*
X144009104Y-92559523D01*
X144009104Y-92559523D02*
X144151961Y-92607142D01*
X144151961Y-92607142D02*
X144247200Y-92702380D01*
X144247200Y-92702380D02*
X144294819Y-92845237D01*
X144294819Y-92845237D02*
X144294819Y-92940475D01*
X144294819Y-91559523D02*
X144294819Y-92130951D01*
X144294819Y-91845237D02*
X143294819Y-91845237D01*
X143294819Y-91845237D02*
X143437676Y-91940475D01*
X143437676Y-91940475D02*
X143532914Y-92035713D01*
X143532914Y-92035713D02*
X143580533Y-92130951D01*
X143294819Y-90940475D02*
X143294819Y-90845237D01*
X143294819Y-90845237D02*
X143342438Y-90749999D01*
X143342438Y-90749999D02*
X143390057Y-90702380D01*
X143390057Y-90702380D02*
X143485295Y-90654761D01*
X143485295Y-90654761D02*
X143675771Y-90607142D01*
X143675771Y-90607142D02*
X143913866Y-90607142D01*
X143913866Y-90607142D02*
X144104342Y-90654761D01*
X144104342Y-90654761D02*
X144199580Y-90702380D01*
X144199580Y-90702380D02*
X144247200Y-90749999D01*
X144247200Y-90749999D02*
X144294819Y-90845237D01*
X144294819Y-90845237D02*
X144294819Y-90940475D01*
X144294819Y-90940475D02*
X144247200Y-91035713D01*
X144247200Y-91035713D02*
X144199580Y-91083332D01*
X144199580Y-91083332D02*
X144104342Y-91130951D01*
X144104342Y-91130951D02*
X143913866Y-91178570D01*
X143913866Y-91178570D02*
X143675771Y-91178570D01*
X143675771Y-91178570D02*
X143485295Y-91130951D01*
X143485295Y-91130951D02*
X143390057Y-91083332D01*
X143390057Y-91083332D02*
X143342438Y-91035713D01*
X143342438Y-91035713D02*
X143294819Y-90940475D01*
X118990476Y-80944819D02*
X118990476Y-81659104D01*
X118990476Y-81659104D02*
X118942857Y-81801961D01*
X118942857Y-81801961D02*
X118847619Y-81897200D01*
X118847619Y-81897200D02*
X118704762Y-81944819D01*
X118704762Y-81944819D02*
X118609524Y-81944819D01*
X119419048Y-81040057D02*
X119466667Y-80992438D01*
X119466667Y-80992438D02*
X119561905Y-80944819D01*
X119561905Y-80944819D02*
X119800000Y-80944819D01*
X119800000Y-80944819D02*
X119895238Y-80992438D01*
X119895238Y-80992438D02*
X119942857Y-81040057D01*
X119942857Y-81040057D02*
X119990476Y-81135295D01*
X119990476Y-81135295D02*
X119990476Y-81230533D01*
X119990476Y-81230533D02*
X119942857Y-81373390D01*
X119942857Y-81373390D02*
X119371429Y-81944819D01*
X119371429Y-81944819D02*
X119990476Y-81944819D01*
X120609524Y-80944819D02*
X120704762Y-80944819D01*
X120704762Y-80944819D02*
X120800000Y-80992438D01*
X120800000Y-80992438D02*
X120847619Y-81040057D01*
X120847619Y-81040057D02*
X120895238Y-81135295D01*
X120895238Y-81135295D02*
X120942857Y-81325771D01*
X120942857Y-81325771D02*
X120942857Y-81563866D01*
X120942857Y-81563866D02*
X120895238Y-81754342D01*
X120895238Y-81754342D02*
X120847619Y-81849580D01*
X120847619Y-81849580D02*
X120800000Y-81897200D01*
X120800000Y-81897200D02*
X120704762Y-81944819D01*
X120704762Y-81944819D02*
X120609524Y-81944819D01*
X120609524Y-81944819D02*
X120514286Y-81897200D01*
X120514286Y-81897200D02*
X120466667Y-81849580D01*
X120466667Y-81849580D02*
X120419048Y-81754342D01*
X120419048Y-81754342D02*
X120371429Y-81563866D01*
X120371429Y-81563866D02*
X120371429Y-81325771D01*
X120371429Y-81325771D02*
X120419048Y-81135295D01*
X120419048Y-81135295D02*
X120466667Y-81040057D01*
X120466667Y-81040057D02*
X120514286Y-80992438D01*
X120514286Y-80992438D02*
X120609524Y-80944819D01*
X143294819Y-100059523D02*
X144009104Y-100059523D01*
X144009104Y-100059523D02*
X144151961Y-100107142D01*
X144151961Y-100107142D02*
X144247200Y-100202380D01*
X144247200Y-100202380D02*
X144294819Y-100345237D01*
X144294819Y-100345237D02*
X144294819Y-100440475D01*
X144294819Y-99059523D02*
X144294819Y-99630951D01*
X144294819Y-99345237D02*
X143294819Y-99345237D01*
X143294819Y-99345237D02*
X143437676Y-99440475D01*
X143437676Y-99440475D02*
X143532914Y-99535713D01*
X143532914Y-99535713D02*
X143580533Y-99630951D01*
X143390057Y-98678570D02*
X143342438Y-98630951D01*
X143342438Y-98630951D02*
X143294819Y-98535713D01*
X143294819Y-98535713D02*
X143294819Y-98297618D01*
X143294819Y-98297618D02*
X143342438Y-98202380D01*
X143342438Y-98202380D02*
X143390057Y-98154761D01*
X143390057Y-98154761D02*
X143485295Y-98107142D01*
X143485295Y-98107142D02*
X143580533Y-98107142D01*
X143580533Y-98107142D02*
X143723390Y-98154761D01*
X143723390Y-98154761D02*
X144294819Y-98726189D01*
X144294819Y-98726189D02*
X144294819Y-98107142D01*
X118940476Y-70894819D02*
X118940476Y-71609104D01*
X118940476Y-71609104D02*
X118892857Y-71751961D01*
X118892857Y-71751961D02*
X118797619Y-71847200D01*
X118797619Y-71847200D02*
X118654762Y-71894819D01*
X118654762Y-71894819D02*
X118559524Y-71894819D01*
X119940476Y-71894819D02*
X119369048Y-71894819D01*
X119654762Y-71894819D02*
X119654762Y-70894819D01*
X119654762Y-70894819D02*
X119559524Y-71037676D01*
X119559524Y-71037676D02*
X119464286Y-71132914D01*
X119464286Y-71132914D02*
X119369048Y-71180533D01*
X120416667Y-71894819D02*
X120607143Y-71894819D01*
X120607143Y-71894819D02*
X120702381Y-71847200D01*
X120702381Y-71847200D02*
X120750000Y-71799580D01*
X120750000Y-71799580D02*
X120845238Y-71656723D01*
X120845238Y-71656723D02*
X120892857Y-71466247D01*
X120892857Y-71466247D02*
X120892857Y-71085295D01*
X120892857Y-71085295D02*
X120845238Y-70990057D01*
X120845238Y-70990057D02*
X120797619Y-70942438D01*
X120797619Y-70942438D02*
X120702381Y-70894819D01*
X120702381Y-70894819D02*
X120511905Y-70894819D01*
X120511905Y-70894819D02*
X120416667Y-70942438D01*
X120416667Y-70942438D02*
X120369048Y-70990057D01*
X120369048Y-70990057D02*
X120321429Y-71085295D01*
X120321429Y-71085295D02*
X120321429Y-71323390D01*
X120321429Y-71323390D02*
X120369048Y-71418628D01*
X120369048Y-71418628D02*
X120416667Y-71466247D01*
X120416667Y-71466247D02*
X120511905Y-71513866D01*
X120511905Y-71513866D02*
X120702381Y-71513866D01*
X120702381Y-71513866D02*
X120797619Y-71466247D01*
X120797619Y-71466247D02*
X120845238Y-71418628D01*
X120845238Y-71418628D02*
X120892857Y-71323390D01*
X152794819Y-103333333D02*
X153509104Y-103333333D01*
X153509104Y-103333333D02*
X153651961Y-103380952D01*
X153651961Y-103380952D02*
X153747200Y-103476190D01*
X153747200Y-103476190D02*
X153794819Y-103619047D01*
X153794819Y-103619047D02*
X153794819Y-103714285D01*
X152794819Y-102952380D02*
X152794819Y-102285714D01*
X152794819Y-102285714D02*
X153794819Y-102714285D01*
X152794819Y-84583333D02*
X153509104Y-84583333D01*
X153509104Y-84583333D02*
X153651961Y-84630952D01*
X153651961Y-84630952D02*
X153747200Y-84726190D01*
X153747200Y-84726190D02*
X153794819Y-84869047D01*
X153794819Y-84869047D02*
X153794819Y-84964285D01*
X152890057Y-84154761D02*
X152842438Y-84107142D01*
X152842438Y-84107142D02*
X152794819Y-84011904D01*
X152794819Y-84011904D02*
X152794819Y-83773809D01*
X152794819Y-83773809D02*
X152842438Y-83678571D01*
X152842438Y-83678571D02*
X152890057Y-83630952D01*
X152890057Y-83630952D02*
X152985295Y-83583333D01*
X152985295Y-83583333D02*
X153080533Y-83583333D01*
X153080533Y-83583333D02*
X153223390Y-83630952D01*
X153223390Y-83630952D02*
X153794819Y-84202380D01*
X153794819Y-84202380D02*
X153794819Y-83583333D01*
D14*
%TO.C,J9*%
X144840000Y-89330000D02*
X144840000Y-88000000D01*
X146170000Y-89330000D02*
X144840000Y-89330000D01*
X147440000Y-86670000D02*
X152580000Y-86670000D01*
X147440000Y-89330000D02*
X147440000Y-86670000D01*
X147440000Y-89330000D02*
X152580000Y-89330000D01*
X152580000Y-89330000D02*
X152580000Y-86670000D01*
%TO.C,J14*%
X88670000Y-64630000D02*
X88670000Y-112950000D01*
X88670000Y-64630000D02*
X91330000Y-64630000D01*
X88670000Y-112950000D02*
X91330000Y-112950000D01*
X90000000Y-62030000D02*
X91330000Y-62030000D01*
X91330000Y-62030000D02*
X91330000Y-63360000D01*
X91330000Y-64630000D02*
X91330000Y-112950000D01*
%TO.C,J6*%
X154340000Y-100580000D02*
X154340000Y-99250000D01*
X155670000Y-100580000D02*
X154340000Y-100580000D01*
X156940000Y-97920000D02*
X162080000Y-97920000D01*
X156940000Y-100580000D02*
X156940000Y-97920000D01*
X156940000Y-100580000D02*
X162080000Y-100580000D01*
X162080000Y-100580000D02*
X162080000Y-97920000D01*
%TO.C,J18*%
X126420000Y-75520000D02*
X126420000Y-78120000D01*
X126420000Y-75520000D02*
X129080000Y-75520000D01*
X126420000Y-78120000D02*
X129080000Y-78120000D01*
X127750000Y-72920000D02*
X129080000Y-72920000D01*
X129080000Y-72920000D02*
X129080000Y-74250000D01*
X129080000Y-75520000D02*
X129080000Y-78120000D01*
%TO.C,J21*%
X120373453Y-70897500D02*
X120373453Y-60857500D01*
X121582453Y-66761500D02*
X121626453Y-66717500D01*
X121809453Y-66988500D02*
X121853453Y-66944500D01*
X124133453Y-64210500D02*
X124177453Y-64167500D01*
X124360453Y-64437500D02*
X124404453Y-64394500D01*
X127693453Y-60857500D02*
X120373453Y-60857500D01*
X130613453Y-60857500D02*
X128293453Y-60857500D01*
X130613453Y-61477500D02*
X120373453Y-61477500D01*
X130613453Y-62977500D02*
X120373453Y-62977500D01*
X130613453Y-67877500D02*
X120373453Y-67877500D01*
X130613453Y-70897500D02*
X120373453Y-70897500D01*
X130613453Y-70897500D02*
X130613453Y-60857500D01*
X126213453Y-66117500D02*
G75*
G02*
X126213247Y-65038179I1780013J540000D01*
G01*
X127453453Y-63797500D02*
G75*
G02*
X128532774Y-63797294I540000J-1780013D01*
G01*
X128533453Y-67357500D02*
G75*
G02*
X127454132Y-67357706I-540000J1780000D01*
G01*
X129773453Y-65037500D02*
G75*
G02*
X129773659Y-66116821I-1780000J-540000D01*
G01*
X124853453Y-65577500D02*
G75*
G02*
X121133453Y-65577500I-1860000J0D01*
G01*
X121133453Y-65577500D02*
G75*
G02*
X124853453Y-65577500I1860000J0D01*
G01*
X127993453Y-60857500D02*
X127553453Y-60247500D01*
X128433453Y-60247500D01*
X127993453Y-60857500D01*
G36*
X127993453Y-60857500D02*
G01*
X127553453Y-60247500D01*
X128433453Y-60247500D01*
X127993453Y-60857500D01*
G37*
%TO.C,J4*%
X154340000Y-93080000D02*
X154340000Y-91750000D01*
X155670000Y-93080000D02*
X154340000Y-93080000D01*
X156940000Y-90420000D02*
X162080000Y-90420000D01*
X156940000Y-93080000D02*
X156940000Y-90420000D01*
X156940000Y-93080000D02*
X162080000Y-93080000D01*
X162080000Y-93080000D02*
X162080000Y-90420000D01*
%TO.C,J17*%
X111170000Y-62070000D02*
X112500000Y-62070000D01*
X111170000Y-63400000D02*
X111170000Y-62070000D01*
X111170000Y-64670000D02*
X111170000Y-112990000D01*
X111170000Y-64670000D02*
X113830000Y-64670000D01*
X111170000Y-112990000D02*
X113830000Y-112990000D01*
X113830000Y-64670000D02*
X113830000Y-112990000D01*
%TO.C,J13*%
X144840000Y-104330000D02*
X144840000Y-103000000D01*
X146170000Y-104330000D02*
X144840000Y-104330000D01*
X147440000Y-101670000D02*
X152580000Y-101670000D01*
X147440000Y-104330000D02*
X147440000Y-101670000D01*
X147440000Y-104330000D02*
X152580000Y-104330000D01*
X152580000Y-104330000D02*
X152580000Y-101670000D01*
%TO.C,J3*%
X154340000Y-89330000D02*
X154340000Y-88000000D01*
X155670000Y-89330000D02*
X154340000Y-89330000D01*
X156940000Y-86670000D02*
X162080000Y-86670000D01*
X156940000Y-89330000D02*
X156940000Y-86670000D01*
X156940000Y-89330000D02*
X162080000Y-89330000D01*
X162080000Y-89330000D02*
X162080000Y-86670000D01*
%TO.C,J15*%
X107170000Y-64670000D02*
X107170000Y-112990000D01*
X107170000Y-64670000D02*
X109830000Y-64670000D01*
X107170000Y-112990000D02*
X109830000Y-112990000D01*
X108500000Y-62070000D02*
X109830000Y-62070000D01*
X109830000Y-62070000D02*
X109830000Y-63400000D01*
X109830000Y-64670000D02*
X109830000Y-112990000D01*
%TO.C,J11*%
X144840000Y-96830000D02*
X144840000Y-95500000D01*
X146170000Y-96830000D02*
X144840000Y-96830000D01*
X147440000Y-94170000D02*
X152580000Y-94170000D01*
X147440000Y-96830000D02*
X147440000Y-94170000D01*
X147440000Y-96830000D02*
X152580000Y-96830000D01*
X152580000Y-96830000D02*
X152580000Y-94170000D01*
%TO.C,J1*%
X120380000Y-104680000D02*
X120380000Y-114720000D01*
X120380000Y-104680000D02*
X130620000Y-104680000D01*
X120380000Y-107700000D02*
X130620000Y-107700000D01*
X120380000Y-112600000D02*
X130620000Y-112600000D01*
X120380000Y-114100000D02*
X130620000Y-114100000D01*
X120380000Y-114720000D02*
X122700000Y-114720000D01*
X123300000Y-114720000D02*
X130620000Y-114720000D01*
X126633000Y-111140000D02*
X126589000Y-111183000D01*
X126860000Y-111367000D02*
X126816000Y-111410000D01*
X129184000Y-108589000D02*
X129140000Y-108633000D01*
X129411000Y-108816000D02*
X129367000Y-108860000D01*
X130620000Y-104680000D02*
X130620000Y-114720000D01*
X121220000Y-110540000D02*
G75*
G02*
X121219794Y-109460679I1780000J540000D01*
G01*
X122460000Y-108220000D02*
G75*
G02*
X123539321Y-108219794I540000J-1780000D01*
G01*
X123540000Y-111780000D02*
G75*
G02*
X122460679Y-111780206I-540000J1780013D01*
G01*
X124780000Y-109460000D02*
G75*
G02*
X124780206Y-110539321I-1780013J-540000D01*
G01*
X129860000Y-110000000D02*
G75*
G02*
X126140000Y-110000000I-1860000J0D01*
G01*
X126140000Y-110000000D02*
G75*
G02*
X129860000Y-110000000I1860000J0D01*
G01*
X123440000Y-115330000D02*
X122560000Y-115330000D01*
X123000000Y-114720000D01*
X123440000Y-115330000D01*
G36*
X123440000Y-115330000D02*
G01*
X122560000Y-115330000D01*
X123000000Y-114720000D01*
X123440000Y-115330000D01*
G37*
%TO.C,J16*%
X84670000Y-62030000D02*
X86000000Y-62030000D01*
X84670000Y-63360000D02*
X84670000Y-62030000D01*
X84670000Y-64630000D02*
X84670000Y-112950000D01*
X84670000Y-64630000D02*
X87330000Y-64630000D01*
X84670000Y-112950000D02*
X87330000Y-112950000D01*
X87330000Y-64630000D02*
X87330000Y-112950000D01*
%TO.C,J8*%
X144840000Y-85580000D02*
X144840000Y-84250000D01*
X146170000Y-85580000D02*
X144840000Y-85580000D01*
X147440000Y-82920000D02*
X152580000Y-82920000D01*
X147440000Y-85580000D02*
X147440000Y-82920000D01*
X147440000Y-85580000D02*
X152580000Y-85580000D01*
X152580000Y-85580000D02*
X152580000Y-82920000D01*
%TO.C,J5*%
X154340000Y-96830000D02*
X154340000Y-95500000D01*
X155670000Y-96830000D02*
X154340000Y-96830000D01*
X156940000Y-94170000D02*
X162080000Y-94170000D01*
X156940000Y-96830000D02*
X156940000Y-94170000D01*
X156940000Y-96830000D02*
X162080000Y-96830000D01*
X162080000Y-96830000D02*
X162080000Y-94170000D01*
%TO.C,J10*%
X144840000Y-93080000D02*
X144840000Y-91750000D01*
X146170000Y-93080000D02*
X144840000Y-93080000D01*
X147440000Y-90420000D02*
X152580000Y-90420000D01*
X147440000Y-93080000D02*
X147440000Y-90420000D01*
X147440000Y-93080000D02*
X152580000Y-93080000D01*
X152580000Y-93080000D02*
X152580000Y-90420000D01*
%TO.C,J20*%
X118470000Y-85530000D02*
X118470000Y-103370000D01*
X118470000Y-85530000D02*
X121130000Y-85530000D01*
X118470000Y-103370000D02*
X121130000Y-103370000D01*
X119800000Y-82930000D02*
X121130000Y-82930000D01*
X121130000Y-82930000D02*
X121130000Y-84260000D01*
X121130000Y-85530000D02*
X121130000Y-103370000D01*
%TO.C,J12*%
X144840000Y-100580000D02*
X144840000Y-99250000D01*
X146170000Y-100580000D02*
X144840000Y-100580000D01*
X147440000Y-97920000D02*
X152580000Y-97920000D01*
X147440000Y-100580000D02*
X147440000Y-97920000D01*
X147440000Y-100580000D02*
X152580000Y-100580000D01*
X152580000Y-100580000D02*
X152580000Y-97920000D01*
%TO.C,J19*%
X118420000Y-75480000D02*
X118420000Y-80620000D01*
X118420000Y-75480000D02*
X121080000Y-75480000D01*
X118420000Y-80620000D02*
X121080000Y-80620000D01*
X119750000Y-72880000D02*
X121080000Y-72880000D01*
X121080000Y-72880000D02*
X121080000Y-74210000D01*
X121080000Y-75480000D02*
X121080000Y-80620000D01*
%TO.C,J7*%
X154340000Y-104330000D02*
X154340000Y-103000000D01*
X155670000Y-104330000D02*
X154340000Y-104330000D01*
X156940000Y-101670000D02*
X162080000Y-101670000D01*
X156940000Y-104330000D02*
X156940000Y-101670000D01*
X156940000Y-104330000D02*
X162080000Y-104330000D01*
X162080000Y-104330000D02*
X162080000Y-101670000D01*
%TO.C,J2*%
X154340000Y-85580000D02*
X154340000Y-84250000D01*
X155670000Y-85580000D02*
X154340000Y-85580000D01*
X156940000Y-82920000D02*
X162080000Y-82920000D01*
X156940000Y-85580000D02*
X156940000Y-82920000D01*
X156940000Y-85580000D02*
X162080000Y-85580000D01*
X162080000Y-85580000D02*
X162080000Y-82920000D01*
%TD*%
M02*
