%TF.GenerationSoftware,KiCad,Pcbnew,9.0.0*%
%TF.CreationDate,2025-03-26T16:22:17-04:00*%
%TF.ProjectId,spotmicro17mm,73706f74-6d69-4637-926f-31376d6d2e6b,rev?*%
%TF.SameCoordinates,Original*%
%TF.FileFunction,Copper,L4,Bot*%
%TF.FilePolarity,Positive*%
%FSLAX46Y46*%
G04 Gerber Fmt 4.6, Leading zero omitted, Abs format (unit mm)*
G04 Created by KiCad (PCBNEW 9.0.0) date 2025-03-26 16:22:17*
%MOMM*%
%LPD*%
G01*
G04 APERTURE LIST*
G04 Aperture macros list*
%AMRoundRect*
0 Rectangle with rounded corners*
0 $1 Rounding radius*
0 $2 $3 $4 $5 $6 $7 $8 $9 X,Y pos of 4 corners*
0 Add a 4 corners polygon primitive as box body*
4,1,4,$2,$3,$4,$5,$6,$7,$8,$9,$2,$3,0*
0 Add four circle primitives for the rounded corners*
1,1,$1+$1,$2,$3*
1,1,$1+$1,$4,$5*
1,1,$1+$1,$6,$7*
1,1,$1+$1,$8,$9*
0 Add four rect primitives between the rounded corners*
20,1,$1+$1,$2,$3,$4,$5,0*
20,1,$1+$1,$4,$5,$6,$7,0*
20,1,$1+$1,$6,$7,$8,$9,0*
20,1,$1+$1,$8,$9,$2,$3,0*%
G04 Aperture macros list end*
%TA.AperFunction,ComponentPad*%
%ADD10R,1.700000X1.700000*%
%TD*%
%TA.AperFunction,ComponentPad*%
%ADD11O,1.700000X1.700000*%
%TD*%
%TA.AperFunction,ComponentPad*%
%ADD12RoundRect,0.250000X1.050000X1.050000X-1.050000X1.050000X-1.050000X-1.050000X1.050000X-1.050000X0*%
%TD*%
%TA.AperFunction,ComponentPad*%
%ADD13C,2.600000*%
%TD*%
%TA.AperFunction,ComponentPad*%
%ADD14RoundRect,0.250000X-1.050000X-1.050000X1.050000X-1.050000X1.050000X1.050000X-1.050000X1.050000X0*%
%TD*%
%TA.AperFunction,ComponentPad*%
%ADD15C,1.778000*%
%TD*%
%TA.AperFunction,Conductor*%
%ADD16C,0.200000*%
%TD*%
G04 APERTURE END LIST*
D10*
%TO.P,J9,1,Pin_1*%
%TO.N,/PWM-7*%
X146170000Y-88000000D03*
D11*
%TO.P,J9,2,Pin_2*%
%TO.N,/S2-PWR*%
X148710000Y-88000000D03*
%TO.P,J9,3,Pin_3*%
%TO.N,/S2-GND*%
X151250000Y-88000000D03*
%TD*%
D10*
%TO.P,J14,1,Pin_1*%
%TO.N,/ESP-32Pin*%
X91500000Y-63360000D03*
D11*
%TO.P,J14,2,Pin_2*%
X91500000Y-65900000D03*
%TO.P,J14,3,Pin_3*%
X91500000Y-68440000D03*
%TO.P,J14,4,Pin_4*%
X91500000Y-70980000D03*
%TO.P,J14,5,Pin_5*%
X91500000Y-73520000D03*
%TO.P,J14,6,Pin_6*%
X91500000Y-76060000D03*
%TO.P,J14,7,Pin_7*%
X91500000Y-78600000D03*
%TO.P,J14,8,Pin_8*%
X91500000Y-81140000D03*
%TO.P,J14,9,Pin_9*%
X91500000Y-83680000D03*
%TO.P,J14,10,Pin_10*%
X91500000Y-86220000D03*
%TO.P,J14,11,Pin_11*%
X91500000Y-88760000D03*
%TO.P,J14,12,Pin_12*%
X91500000Y-91300000D03*
%TO.P,J14,13,Pin_13*%
X91500000Y-93840000D03*
%TO.P,J14,14,Pin_14*%
X91500000Y-96380000D03*
%TO.P,J14,15,Pin_15*%
X91500000Y-98920000D03*
%TO.P,J14,16,Pin_16*%
X91500000Y-101460000D03*
%TO.P,J14,17,Pin_17*%
X91500000Y-104000000D03*
%TO.P,J14,18,Pin_18*%
X91500000Y-106540000D03*
%TO.P,J14,19,Pin_19*%
X91500000Y-109080000D03*
%TO.P,J14,20,Pin_20*%
X91500000Y-111620000D03*
%TD*%
D10*
%TO.P,J6,1,Pin_1*%
%TO.N,/PWM-4*%
X155670000Y-99250000D03*
D11*
%TO.P,J6,2,Pin_2*%
%TO.N,/S1-PWR*%
X158210000Y-99250000D03*
%TO.P,J6,3,Pin_3*%
%TO.N,/S1-GND*%
X160750000Y-99250000D03*
%TD*%
D10*
%TO.P,J18,1,Pin_1*%
%TO.N,/Global SCL*%
X127750000Y-74250000D03*
D11*
%TO.P,J18,2,Pin_2*%
%TO.N,/Global SDA*%
X127750000Y-76790000D03*
%TD*%
D12*
%TO.P,J21,1,Pin_1*%
%TO.N,/S2-PWR*%
X127993453Y-65577500D03*
D13*
%TO.P,J21,2,Pin_2*%
%TO.N,/S2-GND*%
X122993453Y-65577500D03*
%TD*%
D10*
%TO.P,J4,1,Pin_1*%
%TO.N,/PWM-2*%
X155670000Y-91750000D03*
D11*
%TO.P,J4,2,Pin_2*%
%TO.N,/S1-PWR*%
X158210000Y-91750000D03*
%TO.P,J4,3,Pin_3*%
%TO.N,/S1-GND*%
X160750000Y-91750000D03*
%TD*%
D10*
%TO.P,J17,1,Pin_1*%
%TO.N,/ESP-32Pin*%
X112500000Y-63400000D03*
D11*
%TO.P,J17,2,Pin_2*%
X112500000Y-65940000D03*
%TO.P,J17,3,Pin_3*%
X112500000Y-68480000D03*
%TO.P,J17,4,Pin_4*%
X112500000Y-71020000D03*
%TO.P,J17,5,Pin_5*%
X112500000Y-73560000D03*
%TO.P,J17,6,Pin_6*%
X112500000Y-76100000D03*
%TO.P,J17,7,Pin_7*%
X112500000Y-78640000D03*
%TO.P,J17,8,Pin_8*%
X112500000Y-81180000D03*
%TO.P,J17,9,Pin_9*%
X112500000Y-83720000D03*
%TO.P,J17,10,Pin_10*%
X112500000Y-86260000D03*
%TO.P,J17,11,Pin_11*%
X112500000Y-88800000D03*
%TO.P,J17,12,Pin_12*%
X112500000Y-91340000D03*
%TO.P,J17,13,Pin_13*%
X112500000Y-93880000D03*
%TO.P,J17,14,Pin_14*%
X112500000Y-96420000D03*
%TO.P,J17,15,Pin_15*%
X112500000Y-98960000D03*
%TO.P,J17,16,Pin_16*%
X112500000Y-101500000D03*
%TO.P,J17,17,Pin_17*%
X112500000Y-104040000D03*
%TO.P,J17,18,Pin_18*%
X112500000Y-106580000D03*
%TO.P,J17,19,Pin_19*%
X112500000Y-109120000D03*
%TO.P,J17,20,Pin_20*%
X112500000Y-111660000D03*
%TD*%
D10*
%TO.P,J13,1,Pin_1*%
%TO.N,/PWM-11*%
X146170000Y-103000000D03*
D11*
%TO.P,J13,2,Pin_2*%
%TO.N,/S2-PWR*%
X148710000Y-103000000D03*
%TO.P,J13,3,Pin_3*%
%TO.N,/S2-GND*%
X151250000Y-103000000D03*
%TD*%
D10*
%TO.P,J3,1,Pin_1*%
%TO.N,/PWM-1*%
X155670000Y-88000000D03*
D11*
%TO.P,J3,2,Pin_2*%
%TO.N,/S1-PWR*%
X158210000Y-88000000D03*
%TO.P,J3,3,Pin_3*%
%TO.N,/S1-GND*%
X160750000Y-88000000D03*
%TD*%
D10*
%TO.P,J15,1,Pin_1*%
%TO.N,/ESP-32Pin*%
X108500000Y-63400000D03*
D11*
%TO.P,J15,2,Pin_2*%
X108500000Y-65940000D03*
%TO.P,J15,3,Pin_3*%
X108500000Y-68480000D03*
%TO.P,J15,4,Pin_4*%
X108500000Y-71020000D03*
%TO.P,J15,5,Pin_5*%
X108500000Y-73560000D03*
%TO.P,J15,6,Pin_6*%
X108500000Y-76100000D03*
%TO.P,J15,7,Pin_7*%
X108500000Y-78640000D03*
%TO.P,J15,8,Pin_8*%
X108500000Y-81180000D03*
%TO.P,J15,9,Pin_9*%
X108500000Y-83720000D03*
%TO.P,J15,10,Pin_10*%
X108500000Y-86260000D03*
%TO.P,J15,11,Pin_11*%
X108500000Y-88800000D03*
%TO.P,J15,12,Pin_12*%
X108500000Y-91340000D03*
%TO.P,J15,13,Pin_13*%
X108500000Y-93880000D03*
%TO.P,J15,14,Pin_14*%
X108500000Y-96420000D03*
%TO.P,J15,15,Pin_15*%
X108500000Y-98960000D03*
%TO.P,J15,16,Pin_16*%
X108500000Y-101500000D03*
%TO.P,J15,17,Pin_17*%
X108500000Y-104040000D03*
%TO.P,J15,18,Pin_18*%
X108500000Y-106580000D03*
%TO.P,J15,19,Pin_19*%
X108500000Y-109120000D03*
%TO.P,J15,20,Pin_20*%
X108500000Y-111660000D03*
%TD*%
D10*
%TO.P,J11,1,Pin_1*%
%TO.N,/PWM-9*%
X146170000Y-95500000D03*
D11*
%TO.P,J11,2,Pin_2*%
%TO.N,/S2-PWR*%
X148710000Y-95500000D03*
%TO.P,J11,3,Pin_3*%
%TO.N,/S2-GND*%
X151250000Y-95500000D03*
%TD*%
D14*
%TO.P,J1,1,Pin_1*%
%TO.N,/S1-PWR*%
X123000000Y-110000000D03*
D13*
%TO.P,J1,2,Pin_2*%
%TO.N,/S1-GND*%
X128000000Y-110000000D03*
%TD*%
D10*
%TO.P,J16,1,Pin_1*%
%TO.N,/ESP-32Pin*%
X87500000Y-63360000D03*
D11*
%TO.P,J16,2,Pin_2*%
X87500000Y-65900000D03*
%TO.P,J16,3,Pin_3*%
X87500000Y-68440000D03*
%TO.P,J16,4,Pin_4*%
X87500000Y-70980000D03*
%TO.P,J16,5,Pin_5*%
X87500000Y-73520000D03*
%TO.P,J16,6,Pin_6*%
X87500000Y-76060000D03*
%TO.P,J16,7,Pin_7*%
X87500000Y-78600000D03*
%TO.P,J16,8,Pin_8*%
X87500000Y-81140000D03*
%TO.P,J16,9,Pin_9*%
X87500000Y-83680000D03*
%TO.P,J16,10,Pin_10*%
X87500000Y-86220000D03*
%TO.P,J16,11,Pin_11*%
X87500000Y-88760000D03*
%TO.P,J16,12,Pin_12*%
X87500000Y-91300000D03*
%TO.P,J16,13,Pin_13*%
X87500000Y-93840000D03*
%TO.P,J16,14,Pin_14*%
X87500000Y-96380000D03*
%TO.P,J16,15,Pin_15*%
X87500000Y-98920000D03*
%TO.P,J16,16,Pin_16*%
X87500000Y-101460000D03*
%TO.P,J16,17,Pin_17*%
X87500000Y-104000000D03*
%TO.P,J16,18,Pin_18*%
X87500000Y-106540000D03*
%TO.P,J16,19,Pin_19*%
X87500000Y-109080000D03*
%TO.P,J16,20,Pin_20*%
X87500000Y-111620000D03*
%TD*%
D10*
%TO.P,J8,1,Pin_1*%
%TO.N,/PWM-6*%
X146170000Y-84250000D03*
D11*
%TO.P,J8,2,Pin_2*%
%TO.N,/S2-PWR*%
X148710000Y-84250000D03*
%TO.P,J8,3,Pin_3*%
%TO.N,/S2-GND*%
X151250000Y-84250000D03*
%TD*%
D10*
%TO.P,J5,1,Pin_1*%
%TO.N,/PWM-3*%
X155670000Y-95500000D03*
D11*
%TO.P,J5,2,Pin_2*%
%TO.N,/S1-PWR*%
X158210000Y-95500000D03*
%TO.P,J5,3,Pin_3*%
%TO.N,/S1-GND*%
X160750000Y-95500000D03*
%TD*%
D10*
%TO.P,J10,1,Pin_1*%
%TO.N,/PWM-8*%
X146170000Y-91750000D03*
D11*
%TO.P,J10,2,Pin_2*%
%TO.N,/S2-PWR*%
X148710000Y-91750000D03*
%TO.P,J10,3,Pin_3*%
%TO.N,/S2-GND*%
X151250000Y-91750000D03*
%TD*%
D10*
%TO.P,J20,1,Pin_1*%
%TO.N,/ESP32-3v3*%
X119800000Y-84260000D03*
D11*
%TO.P,J20,2,Pin_2*%
%TO.N,/ESP32-GND*%
X119800000Y-86800000D03*
%TO.P,J20,3,Pin_3*%
%TO.N,/Global SCL*%
X119800000Y-89340000D03*
%TO.P,J20,4,Pin_4*%
%TO.N,/Global SDA*%
X119800000Y-91880000D03*
%TO.P,J20,5,Pin_5*%
%TO.N,unconnected-(J20-Pin_5-Pad5)*%
X119800000Y-94420000D03*
%TO.P,J20,6,Pin_6*%
%TO.N,unconnected-(J20-Pin_6-Pad6)*%
X119800000Y-96960000D03*
%TO.P,J20,7,Pin_7*%
%TO.N,unconnected-(J20-Pin_7-Pad7)*%
X119800000Y-99500000D03*
%TO.P,J20,8,Pin_8*%
%TO.N,unconnected-(J20-Pin_8-Pad8)*%
X119800000Y-102040000D03*
%TD*%
D10*
%TO.P,J12,1,Pin_1*%
%TO.N,/PWM-10*%
X146170000Y-99250000D03*
D11*
%TO.P,J12,2,Pin_2*%
%TO.N,/S2-PWR*%
X148710000Y-99250000D03*
%TO.P,J12,3,Pin_3*%
%TO.N,/S2-GND*%
X151250000Y-99250000D03*
%TD*%
D10*
%TO.P,J19,1,Pin_1*%
%TO.N,/ESP32-GND*%
X119750000Y-74210000D03*
D11*
%TO.P,J19,2,Pin_2*%
%TO.N,/ESP32-3v3*%
X119750000Y-76750000D03*
%TO.P,J19,3,Pin_3*%
%TO.N,/ESP32-5v*%
X119750000Y-79290000D03*
%TD*%
D10*
%TO.P,J7,1,Pin_1*%
%TO.N,/PWM-5*%
X155670000Y-103000000D03*
D11*
%TO.P,J7,2,Pin_2*%
%TO.N,/S1-PWR*%
X158210000Y-103000000D03*
%TO.P,J7,3,Pin_3*%
%TO.N,/S1-GND*%
X160750000Y-103000000D03*
%TD*%
D15*
%TO.P,U2,0,PWM_0*%
%TO.N,/PWM-0*%
X140440000Y-67050000D03*
%TO.P,U2,1,PWM_1*%
%TO.N,/PWM-1*%
X140440000Y-69590000D03*
%TO.P,U2,2,PWM_2*%
%TO.N,/PWM-2*%
X140440000Y-72130000D03*
%TO.P,U2,3,PWM_3*%
%TO.N,/PWM-3*%
X140440000Y-74670000D03*
%TO.P,U2,4,PWM_4*%
%TO.N,/PWM-4*%
X140440000Y-79750000D03*
%TO.P,U2,5,PWM_5*%
%TO.N,/PWM-5*%
X140440000Y-82290000D03*
%TO.P,U2,6,PWM_6*%
%TO.N,/PWM-6*%
X140440000Y-84830000D03*
%TO.P,U2,7,PWM_7*%
%TO.N,/PWM-7*%
X140440000Y-87370000D03*
%TO.P,U2,8,PWM_8*%
%TO.N,/PWM-8*%
X140440000Y-94990000D03*
%TO.P,U2,9,PWM_9*%
%TO.N,/PWM-9*%
X140440000Y-97530000D03*
%TO.P,U2,10,PWM_10*%
%TO.N,/PWM-10*%
X140440000Y-100070000D03*
%TO.P,U2,11,PWM_11*%
%TO.N,/PWM-11*%
X140440000Y-102610000D03*
%TO.P,U2,GND_1,GND*%
%TO.N,/ESP32-GND*%
X153140000Y-61970000D03*
%TO.P,U2,GND_3*%
%TO.N,N/C*%
X135360000Y-67050000D03*
%TO.P,U2,GND_4*%
X135360000Y-69590000D03*
%TO.P,U2,GND_5*%
X135360000Y-72130000D03*
%TO.P,U2,GND_6*%
X135360000Y-74670000D03*
%TO.P,U2,GND_7*%
X135360000Y-79750000D03*
%TO.P,U2,GND_8*%
X135360000Y-82290000D03*
%TO.P,U2,GND_9*%
X135360000Y-84830000D03*
%TO.P,U2,GND_10*%
X135360000Y-87370000D03*
%TO.P,U2,GND_11*%
X135360000Y-94990000D03*
%TO.P,U2,GND_12*%
X135360000Y-97530000D03*
%TO.P,U2,GND_13*%
X135360000Y-100070000D03*
%TO.P,U2,GND_14*%
X135360000Y-102610000D03*
%TO.P,U2,OE_1*%
X150600000Y-61970000D03*
%TO.P,U2,SCL_1,SCL*%
%TO.N,/Global SCL*%
X148060000Y-61970000D03*
%TO.P,U2,SDA_1,SDA*%
%TO.N,/Global SDA*%
X145520000Y-61970000D03*
%TO.P,U2,V+_1,V+*%
%TO.N,unconnected-(U2-V+-PadV+_1)*%
X140440000Y-61970000D03*
%TO.P,U2,V+_3*%
%TO.N,N/C*%
X137900000Y-67050000D03*
%TO.P,U2,V+_4*%
X137900000Y-69590000D03*
%TO.P,U2,V+_5*%
X137900000Y-72130000D03*
%TO.P,U2,V+_6*%
X137900000Y-74670000D03*
%TO.P,U2,V+_7*%
X137900000Y-79750000D03*
%TO.P,U2,V+_8*%
X137900000Y-82290000D03*
%TO.P,U2,V+_9*%
X137900000Y-84830000D03*
%TO.P,U2,V+_10*%
X137900000Y-87370000D03*
%TO.P,U2,V+_11*%
X137900000Y-94990000D03*
%TO.P,U2,V+_12*%
X137900000Y-97530000D03*
%TO.P,U2,V+_13*%
X137900000Y-100070000D03*
%TO.P,U2,V+_14*%
X137900000Y-102610000D03*
%TO.P,U2,VCC_1,VCC*%
%TO.N,/ESP32-5v*%
X142980000Y-61970000D03*
%TD*%
D10*
%TO.P,J2,1,Pin_1*%
%TO.N,/PWM-0*%
X155670000Y-84250000D03*
D11*
%TO.P,J2,2,Pin_2*%
%TO.N,/S1-PWR*%
X158210000Y-84250000D03*
%TO.P,J2,3,Pin_3*%
%TO.N,/S1-GND*%
X160750000Y-84250000D03*
%TD*%
D16*
%TO.N,/PWM-4*%
X140440000Y-79750000D02*
X151250000Y-79750000D01*
X151250000Y-79750000D02*
X153500000Y-82000000D01*
X153500000Y-82000000D02*
X153500000Y-97080000D01*
X153500000Y-97080000D02*
X155670000Y-99250000D01*
%TO.N,/PWM-5*%
X153000000Y-83500000D02*
X153000000Y-100330000D01*
X151790000Y-82290000D02*
X153000000Y-83500000D01*
X153000000Y-100330000D02*
X155670000Y-103000000D01*
X140440000Y-82290000D02*
X151790000Y-82290000D01*
%TO.N,/Global SDA*%
X133000000Y-63000000D02*
X134000000Y-62000000D01*
X144000000Y-64500000D02*
X145520000Y-62980000D01*
X127750000Y-76790000D02*
X131000000Y-73540000D01*
X137000000Y-62000000D02*
X139500000Y-64500000D01*
X145520000Y-62980000D02*
X145520000Y-61970000D01*
X131000000Y-71000000D02*
X133000000Y-69000000D01*
X139500000Y-64500000D02*
X144000000Y-64500000D01*
X133000000Y-69000000D02*
X133000000Y-63000000D01*
X134000000Y-62000000D02*
X137000000Y-62000000D01*
X131000000Y-73540000D02*
X131000000Y-71000000D01*
%TD*%
M02*
