M48
; DRILL file {KiCad 9.0.0} date 2025-03-26T16:28:14-0400
; FORMAT={-:-/ absolute / metric / decimal}
; #@! TF.CreationDate,2025-03-26T16:28:14-04:00
; #@! TF.GenerationSoftware,Kicad,Pcbnew,9.0.0
; #@! TF.FileFunction,Plated,1,4,PTH
FMAT,2
METRIC
; #@! TA.AperFunction,Plated,PTH,ComponentDrill
T1C1.000
; #@! TA.AperFunction,Plated,PTH,ComponentDrill
T2C1.016
; #@! TA.AperFunction,Plated,PTH,ComponentDrill
T3C1.300
%
G90
G05
T1
X83.5Y-63.36
X83.5Y-65.9
X83.5Y-68.44
X83.5Y-70.98
X83.5Y-73.52
X83.5Y-76.06
X83.5Y-78.6
X83.5Y-81.14
X83.5Y-83.68
X83.5Y-86.22
X83.5Y-88.76
X83.5Y-91.3
X83.5Y-93.84
X83.5Y-96.38
X83.5Y-98.92
X83.5Y-101.46
X83.5Y-104.0
X83.5Y-106.54
X83.5Y-109.08
X83.5Y-111.62
X87.5Y-63.36
X87.5Y-65.9
X87.5Y-68.44
X87.5Y-70.98
X87.5Y-73.52
X87.5Y-76.06
X87.5Y-78.6
X87.5Y-81.14
X87.5Y-83.68
X87.5Y-86.22
X87.5Y-88.76
X87.5Y-91.3
X87.5Y-93.84
X87.5Y-96.38
X87.5Y-98.92
X87.5Y-101.46
X87.5Y-104.0
X87.5Y-106.54
X87.5Y-109.08
X87.5Y-111.62
X108.5Y-63.4
X108.5Y-65.94
X108.5Y-68.48
X108.5Y-71.02
X108.5Y-73.56
X108.5Y-76.1
X108.5Y-78.64
X108.5Y-81.18
X108.5Y-83.72
X108.5Y-86.26
X108.5Y-88.8
X108.5Y-91.34
X108.5Y-93.88
X108.5Y-96.42
X108.5Y-98.96
X108.5Y-101.5
X108.5Y-104.04
X108.5Y-106.58
X108.5Y-109.12
X108.5Y-111.66
X112.5Y-63.4
X112.5Y-65.94
X112.5Y-68.48
X112.5Y-71.02
X112.5Y-73.56
X112.5Y-76.1
X112.5Y-78.64
X112.5Y-81.18
X112.5Y-83.72
X112.5Y-86.26
X112.5Y-88.8
X112.5Y-91.34
X112.5Y-93.88
X112.5Y-96.42
X112.5Y-98.96
X112.5Y-101.5
X112.5Y-104.04
X112.5Y-106.58
X112.5Y-109.12
X112.5Y-111.66
X119.75Y-74.21
X119.75Y-76.75
X119.75Y-79.29
X119.8Y-84.26
X119.8Y-86.8
X119.8Y-89.34
X119.8Y-91.88
X119.8Y-94.42
X119.8Y-96.96
X119.8Y-99.5
X119.8Y-102.04
X127.75Y-74.25
X127.75Y-76.79
X135.36Y-67.05
X135.36Y-69.59
X135.36Y-72.13
X135.36Y-74.67
X135.36Y-79.75
X135.36Y-82.29
X135.36Y-84.83
X135.36Y-87.37
X135.36Y-94.99
X135.36Y-97.53
X135.36Y-100.07
X135.36Y-102.61
X137.9Y-67.05
X137.9Y-69.59
X137.9Y-72.13
X137.9Y-74.67
X137.9Y-79.75
X137.9Y-82.29
X137.9Y-84.83
X137.9Y-87.37
X137.9Y-94.99
X137.9Y-97.53
X137.9Y-100.07
X137.9Y-102.61
X140.44Y-67.05
X140.44Y-69.59
X140.44Y-72.13
X140.44Y-74.67
X140.44Y-79.75
X140.44Y-82.29
X140.44Y-84.83
X140.44Y-87.37
X140.44Y-94.99
X140.44Y-97.53
X140.44Y-100.07
X140.44Y-102.61
X146.17Y-84.25
X146.17Y-88.0
X146.17Y-91.75
X146.17Y-95.5
X146.17Y-99.25
X146.17Y-103.0
X148.71Y-84.25
X148.71Y-88.0
X148.71Y-91.75
X148.71Y-95.5
X148.71Y-99.25
X148.71Y-103.0
X151.25Y-84.25
X151.25Y-88.0
X151.25Y-91.75
X151.25Y-95.5
X151.25Y-99.25
X151.25Y-103.0
X155.67Y-84.25
X155.67Y-88.0
X155.67Y-91.75
X155.67Y-95.5
X155.67Y-99.25
X155.67Y-103.0
X158.21Y-84.25
X158.21Y-88.0
X158.21Y-91.75
X158.21Y-95.5
X158.21Y-99.25
X158.21Y-103.0
X160.75Y-84.25
X160.75Y-88.0
X160.75Y-91.75
X160.75Y-95.5
X160.75Y-99.25
X160.75Y-103.0
T2
X140.44Y-61.97
X142.98Y-61.97
X145.52Y-61.97
X148.06Y-61.97
X150.6Y-61.97
X153.14Y-61.97
T3
X122.993Y-65.578
X123.0Y-110.0
X127.993Y-65.578
X128.0Y-110.0
M30
